<svg xmlns="http://www.w3.org/2000/svg" width="78" height="78" viewBox="0 0 78 78">
  <g fill="none" fill-rule="evenodd" transform="rotate(-30 39 39)">
    <ellipse cx="39" cy="39" fill="#647C85" rx="39" ry="39"/>
    <ellipse cx="39" cy="39" fill="#647C85" stroke="#FFFFFF" rx="35" ry="35"/>
    <path fill="#FFFFFF" d="M17.405,30.4435 L17.405,37 L16.064,37 L16.064,33.229 C16.064,33.1419996 16.06625,33.0475005 16.07075,32.9455 C16.07525,32.8434995 16.0834999,32.7400005 16.0955,32.635 L14.354,36.0055 C14.2999997,36.1105005 14.2272505,36.1899997 14.13575,36.244 C14.0442495,36.2980003 13.9400006,36.325 13.823,36.325 L13.616,36.325 C13.4989994,36.325 13.3947505,36.2980003 13.30325,36.244 C13.2117495,36.1899997 13.1390003,36.1105005 13.085,36.0055 L11.3435,32.626 C11.3525,32.7340005 11.36,32.8397495 11.366,32.94325 C11.372,33.0467505 11.375,33.1419996 11.375,33.229 L11.375,37 L10.034,37 L10.034,30.4435 L11.195,30.4435 C11.2610003,30.4435 11.3187498,30.445 11.36825,30.448 C11.4177502,30.451 11.4619998,30.4599999 11.501,30.475 C11.5400002,30.4900001 11.5752498,30.5132498 11.60675,30.54475 C11.6382502,30.5762502 11.6689999,30.6204997 11.699,30.6775 L13.3865,34.003 C13.4465003,34.1170006 13.5042497,34.2354994 13.55975,34.3585 C13.6152503,34.4815006 13.6684997,34.6074994 13.7195,34.7365 C13.7705003,34.6044993 13.8237497,34.4755006 13.87925,34.3495 C13.9347503,34.2234994 13.9939997,34.1035006 14.057,33.9895 L15.74,30.6775 C15.7700002,30.6204997 15.8007498,30.5762502 15.83225,30.54475 C15.8637502,30.5132498 15.8989998,30.4900001 15.938,30.475 C15.9770002,30.4599999 16.0212498,30.451 16.07075,30.448 C16.1202502,30.445 16.1779997,30.4435 16.244,30.4435 L17.405,30.4435 Z M25.109,33.7195 C25.109,34.1935024 25.0272508,34.634498 24.86375,35.0425 C24.7002492,35.450502 24.4700015,35.8052485 24.173,36.10675 C23.8759985,36.4082515 23.5182521,36.6444991 23.09975,36.8155 C22.6812479,36.9865009 22.2170026,37.072 21.707,37.072 C21.1969975,37.072 20.7320021,36.9865009 20.312,36.8155 C19.8919979,36.6444991 19.5327515,36.4082515 19.23425,36.10675 C18.9357485,35.8052485 18.7047508,35.450502 18.54125,35.0425 C18.3777492,34.634498 18.296,34.1935024 18.296,33.7195 C18.296,33.2454976 18.3777492,32.804502 18.54125,32.3965 C18.7047508,31.988498 18.9357485,31.6345015 19.23425,31.3345 C19.5327515,31.0344985 19.8919979,30.7990009 20.312,30.628 C20.7320021,30.4569991 21.1969975,30.3715 21.707,30.3715 C22.2170026,30.3715 22.6812479,30.4577491 23.09975,30.63025 C23.5182521,30.8027509 23.8759985,31.0389985 24.173,31.339 C24.4700015,31.6390015 24.7002492,31.992998 24.86375,32.401 C25.0272508,32.809002 25.109,33.2484976 25.109,33.7195 L25.109,33.7195 Z M23.552,33.7195 C23.552,33.3954984 23.5100004,33.1037513 23.426,32.84425 C23.3419996,32.5847487 23.2212508,32.3650009 23.06375,32.185 C22.9062492,32.0049991 22.7135011,31.8670005 22.4855,31.771 C22.2574989,31.6749995 21.9980015,31.627 21.707,31.627 C21.4129985,31.627 21.1512511,31.6749995 20.92175,31.771 C20.6922489,31.8670005 20.4987508,32.0049991 20.34125,32.185 C20.1837492,32.3650009 20.0630004,32.5847487 19.979,32.84425 C19.8949996,33.1037513 19.853,33.3954984 19.853,33.7195 C19.853,34.0465016 19.8949996,34.3397487 19.979,34.59925 C20.0630004,34.8587513 20.1837492,35.0784991 20.34125,35.2585 C20.4987508,35.4385009 20.6922489,35.5757495 20.92175,35.67025 C21.1512511,35.7647505 21.4129985,35.812 21.707,35.812 C21.9980015,35.812 22.2574989,35.7647505 22.4855,35.67025 C22.7135011,35.5757495 22.9062492,35.4385009 23.06375,35.2585 C23.2212508,35.0784991 23.3419996,34.8587513 23.426,34.59925 C23.5100004,34.3397487 23.552,34.0465016 23.552,33.7195 L23.552,33.7195 Z M31.7285,30.4435 L31.7285,37 L30.9365,37 C30.8194994,37 30.7212504,36.9812502 30.64175,36.94375 C30.5622496,36.9062498 30.4835004,36.8410005 30.4055,36.748 L27.314,32.8375 C27.3260001,32.9545006 27.33425,33.0677495 27.33875,33.17725 C27.34325,33.2867505 27.3455,33.3894995 27.3455,33.4855 L27.3455,37 L26.0045,37 L26.0045,30.4435 L26.8055,30.4435 C26.8715003,30.4435 26.9269998,30.4465 26.972,30.4525 C27.0170002,30.4585 27.0574998,30.4697499 27.0935,30.48625 C27.1295002,30.5027501 27.1639998,30.5259998 27.197,30.556 C27.2300002,30.5860001 27.2674998,30.6264997 27.3095,30.6775 L30.428,34.615 C30.4129999,34.4889994 30.4025,34.3667506 30.3965,34.24825 C30.3905,34.1297494 30.3875,34.0180005 30.3875,33.913 L30.3875,30.4435 L31.7285,30.4435 Z M34.5275,31.6135 L34.5275,33.1435 L36.5885,33.1435 L36.5885,34.2685 L34.5275,34.2685 L34.5275,35.83 L37.2185,35.83 L37.2185,37 L32.9975,37 L32.9975,30.4435 L37.2185,30.4435 L37.2185,31.6135 L34.5275,31.6135 Z M41.2955,34.507 L41.2955,37 L39.7745,37 L39.7745,34.507 L37.3985,30.4435 L38.7395,30.4435 C38.8715007,30.4435 38.9757496,30.4742497 39.05225,30.53575 C39.1287504,30.5972503 39.1924997,30.6759995 39.2435,30.772 L40.1705,32.68 C40.2485004,32.8300007 40.3189997,32.9702493 40.382,33.10075 C40.4450003,33.2312507 40.5004998,33.3594994 40.5485,33.4855 C40.5935002,33.3564994 40.6452497,33.2267507 40.70375,33.09625 C40.7622503,32.9657493 40.8304996,32.8270007 40.9085,32.68 L41.8265,30.772 C41.8475001,30.7329998 41.8729999,30.6940002 41.903,30.655 C41.9330002,30.6159998 41.9682498,30.5807502 42.00875,30.54925 C42.0492502,30.5177498 42.0957497,30.4922501 42.14825,30.47275 C42.2007503,30.4532499 42.2584997,30.4435 42.3215,30.4435 L43.6715,30.4435 L41.2955,34.507 Z M48.473,35.8525 C48.674001,35.8525 48.8382494,35.8270003 48.96575,35.776 C49.0932506,35.7249997 49.1929996,35.6590004 49.265,35.578 C49.3370004,35.4969996 49.3864999,35.4055005 49.4135,35.3035 C49.4405001,35.2014995 49.454,35.0980005 49.454,34.993 C49.454,34.8729994 49.4382502,34.7650005 49.40675,34.669 C49.3752498,34.5729995 49.3212504,34.4920003 49.24475,34.426 C49.1682496,34.3599997 49.0670006,34.3090002 48.941,34.273 C48.8149994,34.2369998 48.656001,34.219 48.464,34.219 L47.402,34.219 L47.402,35.8525 L48.473,35.8525 Z M47.402,31.582 L47.402,33.202 L48.194,33.202 C48.3620008,33.202 48.5134993,33.1900001 48.6485,33.166 C48.7835007,33.1419999 48.8982495,33.1000003 48.99275,33.04 C49.0872505,32.9799997 49.1592498,32.8975005 49.20875,32.7925 C49.2582502,32.6874995 49.283,32.5555008 49.283,32.3965 C49.283,32.2404992 49.2635002,32.1107505 49.2245,32.00725 C49.1854998,31.9037495 49.1255004,31.8205003 49.0445,31.7575 C48.9634996,31.6944997 48.8607506,31.6495001 48.73625,31.6225 C48.6117494,31.5954999 48.4640009,31.582 48.293,31.582 L47.402,31.582 Z M48.293,30.4435 C48.7460023,30.4435 49.1314984,30.4854996 49.4495,30.5695 C49.7675016,30.6535004 50.026999,30.7719992 50.228,30.925 C50.429001,31.0780008 50.5752495,31.2639989 50.66675,31.483 C50.7582505,31.7020011 50.804,31.9464986 50.804,32.2165 C50.804,32.3635007 50.7830002,32.5052493 50.741,32.64175 C50.6989998,32.7782507 50.6330005,32.9057494 50.543,33.02425 C50.4529996,33.1427506 50.3375007,33.2514995 50.1965,33.3505 C50.0554993,33.4495005 49.886001,33.5349996 49.688,33.607 C50.1200022,33.7120005 50.439499,33.8814988 50.6465,34.1155 C50.853501,34.3495012 50.957,34.6524981 50.957,35.0245 C50.957,35.3035014 50.9030005,35.5629988 50.795,35.803 C50.6869995,36.0430012 50.528751,36.2522491 50.32025,36.43075 C50.111749,36.6092509 49.8545015,36.7487495 49.5485,36.84925 C49.2424985,36.9497505 48.893002,37 48.5,37 L45.881,37 L45.881,30.4435 L48.293,30.4435 Z M55.259,34.4935 L54.6515,32.698 C54.6064998,32.5839994 54.5585003,32.4497508 54.5075,32.29525 C54.4564997,32.1407492 54.4055003,31.9735009 54.3545,31.7935 C54.3094998,31.9765009 54.2615003,32.1459992 54.2105,32.302 C54.1594997,32.4580008 54.1115002,32.5929994 54.0665,32.707 L53.4635,34.4935 L55.259,34.4935 Z M57.6755,37 L56.4965,37 C56.3644993,37 56.2580004,36.9692503 56.177,36.90775 C56.0959996,36.8462497 56.0345002,36.7675005 55.9925,36.6715 L55.6055,35.5285 L53.1125,35.5285 L52.7255,36.6715 C52.6924998,36.7555004 52.6332504,36.8312497 52.54775,36.89875 C52.4622496,36.9662503 52.3565006,37 52.2305,37 L51.0425,37 L53.5805,30.4435 L55.1375,30.4435 L57.6755,37 Z M62.396,35.3035 C62.4320002,35.3035 62.4679998,35.3102499 62.504,35.32375 C62.5400002,35.3372501 62.5744998,35.3604998 62.6075,35.3935 L63.2105,36.028 C62.9464987,36.3730017 62.615752,36.6332491 62.21825,36.80875 C61.820748,36.9842509 61.3505027,37.072 60.8075,37.072 C60.3094975,37.072 59.863252,36.9872508 59.46875,36.81775 C59.074248,36.6482492 58.7397514,36.4142515 58.46525,36.11575 C58.1907486,35.8172485 57.9800007,35.463252 57.833,35.05375 C57.6859993,34.644248 57.6125,34.1995024 57.6125,33.7195 C57.6125,33.2304976 57.6919992,32.781252 57.851,32.37175 C58.0100008,31.962248 58.2334986,31.6090015 58.5215,31.312 C58.8095014,31.0149985 59.154498,30.7840008 59.5565,30.619 C59.958502,30.4539992 60.4009976,30.3715 60.884,30.3715 C61.1300012,30.3715 61.3617489,30.3932498 61.57925,30.43675 C61.7967511,30.4802502 61.9999991,30.5402496 62.189,30.61675 C62.3780009,30.6932504 62.5519992,30.7854995 62.711,30.8935 C62.8700008,31.0015005 63.0109994,31.1184994 63.134,31.2445 L62.621,31.933 C62.5879998,31.9750002 62.5490002,32.0132498 62.504,32.04775 C62.4589998,32.0822502 62.3960004,32.0995 62.315,32.0995 C62.2609997,32.0995 62.2100002,32.0875001 62.162,32.0635 C62.1139998,32.0394999 62.0630003,32.0102502 62.009,31.97575 C61.9549997,31.9412498 61.8957503,31.9037502 61.83125,31.86325 C61.7667497,31.8227498 61.6902504,31.7852502 61.60175,31.75075 C61.5132496,31.7162498 61.4097506,31.6870001 61.29125,31.663 C61.1727494,31.6389999 61.0340008,31.627 60.875,31.627 C60.6229987,31.627 60.392751,31.6734995 60.18425,31.7665 C59.975749,31.8595005 59.7957508,31.9952491 59.64425,32.17375 C59.4927492,32.3522509 59.3757504,32.5712487 59.29325,32.83075 C59.2107496,33.0902513 59.1695,33.3864983 59.1695,33.7195 C59.1695,34.0555017 59.2152495,34.3539987 59.30675,34.615 C59.3982505,34.8760013 59.5227492,35.0957491 59.68025,35.27425 C59.8377508,35.4527509 60.021499,35.5884995 60.2315,35.6815 C60.4415011,35.7745005 60.6664988,35.821 60.9065,35.821 C61.0445007,35.821 61.1704994,35.8142501 61.2845,35.80075 C61.3985006,35.7872499 61.5049995,35.7647502 61.604,35.73325 C61.7030005,35.7017498 61.7959996,35.6597503 61.883,35.60725 C61.9700004,35.5547497 62.0584996,35.4880004 62.1485,35.407 C62.1845002,35.3769998 62.2234998,35.3522501 62.2655,35.33275 C62.3075002,35.3132499 62.3509998,35.3035 62.396,35.3035 L62.396,35.3035 Z M65.3975,33.0985 L65.6405,33.0985 C65.8655011,33.0985 66.0274995,33.0280007 66.1265,32.887 L67.6025,30.745 C67.6895004,30.6309994 67.7832495,30.5522502 67.88375,30.50875 C67.9842505,30.4652498 68.1094993,30.4435 68.2595,30.4435 L69.5825,30.4435 L67.6385,33.094 C67.5004993,33.2770009 67.3520008,33.4089996 67.193,33.49 C67.3070006,33.5320002 67.4104995,33.5904996 67.5035,33.6655 C67.5965005,33.7405004 67.6834996,33.8379994 67.7645,33.958 L69.7445,37 L68.3855,37 C68.2984996,37 68.2242503,36.9940001 68.16275,36.982 C68.1012497,36.9699999 68.0480002,36.9520001 68.003,36.928 C67.9579998,36.9039999 67.9190002,36.8747502 67.886,36.84025 C67.8529998,36.8057498 67.8215002,36.7660002 67.7915,36.721 L66.3065,34.4395 C66.2524997,34.3554996 66.1842504,34.2962502 66.10175,34.26175 C66.0192496,34.2272498 65.9075007,34.21 65.7665,34.21 L65.3975,34.21 L65.3975,37 L63.8765,37 L63.8765,30.4435 L65.3975,30.4435 L65.3975,33.0985 Z M15.9965,44.6025 L18.3275,44.6025 L18.3275,47.37 C17.9914983,47.6160012 17.6337519,47.7944994 17.25425,47.9055 C16.8747481,48.0165006 16.4780021,48.072 16.064,48.072 C15.5239973,48.072 15.0327522,47.9872508 14.59025,47.81775 C14.1477478,47.6482492 13.7690016,47.4142515 13.454,47.11575 C13.1389984,46.8172485 12.8960009,46.463252 12.725,46.05375 C12.5539991,45.644248 12.4685,45.1995024 12.4685,44.7195 C12.4685,44.2304976 12.5494992,43.781252 12.7115,43.37175 C12.8735008,42.962248 13.1052485,42.6090015 13.40675,42.312 C13.7082515,42.0149985 14.0727479,41.7840008 14.50025,41.619 C14.9277521,41.4539992 15.4054974,41.3715 15.9335,41.3715 C16.2065014,41.3715 16.4629988,41.3939998 16.703,41.439 C16.9430012,41.4840002 17.164249,41.5454996 17.36675,41.6235 C17.569251,41.7015004 17.7544992,41.7944995 17.9225,41.9025 C18.0905008,42.0105005 18.2404993,42.1274994 18.3725,42.2535 L17.9315,42.924 C17.8624997,43.0290005 17.7732505,43.0934999 17.66375,43.1175 C17.5542495,43.1415001 17.4365006,43.1145004 17.3105,43.0365 C17.1904994,42.9644996 17.0772505,42.9022503 16.97075,42.84975 C16.8642495,42.7972497 16.7555006,42.7545002 16.6445,42.7215 C16.5334994,42.6884998 16.4165006,42.6645001 16.2935,42.6495 C16.1704994,42.6344999 16.0325008,42.627 15.8795,42.627 C15.5944986,42.627 15.3380011,42.6772495 15.11,42.77775 C14.8819989,42.8782505 14.6877508,43.0199991 14.52725,43.203 C14.3667492,43.3860009 14.2430004,43.6057487 14.156,43.86225 C14.0689996,44.1187513 14.0255,44.4044984 14.0255,44.7195 C14.0255,45.0675017 14.0734995,45.3764986 14.1695,45.6465 C14.2655005,45.9165013 14.4012491,46.1444991 14.57675,46.3305 C14.7522509,46.5165009 14.9622488,46.6582495 15.20675,46.75575 C15.4512512,46.8532505 15.7219985,46.902 16.019,46.902 C16.2020009,46.902 16.3677493,46.8840002 16.51625,46.848 C16.6647507,46.8119998 16.8094993,46.7640003 16.9505,46.704 L16.9505,45.7095 L16.3025,45.7095 C16.2064995,45.7095 16.1315003,45.6840003 16.0775,45.633 C16.0234997,45.5819997 15.9965,45.5175004 15.9965,45.4395 L15.9965,44.6025 Z M22.085,46.7985 C22.289001,46.7985 22.4712492,46.7647503 22.63175,46.69725 C22.7922508,46.6297497 22.9279994,46.5330006 23.039,46.407 C23.1500006,46.2809994 23.2347497,46.1272509 23.29325,45.94575 C23.3517503,45.7642491 23.381,45.5580012 23.381,45.327 L23.381,41.4435 L24.902,41.4435 L24.902,45.327 C24.902,45.729002 24.8367507,46.0979983 24.70625,46.434 C24.5757493,46.7700017 24.3890012,47.0594988 24.146,47.3025 C23.9029988,47.5455012 23.6075017,47.7344993 23.2595,47.8695 C22.9114983,48.0045007 22.5200022,48.072 22.085,48.072 C21.6469978,48.072 21.2540017,48.0045007 20.906,47.8695 C20.5579983,47.7344993 20.2625012,47.5455012 20.0195,47.3025 C19.7764988,47.0594988 19.5905006,46.7700017 19.4615,46.434 C19.3324994,46.0979983 19.268,45.729002 19.268,45.327 L19.268,41.4435 L20.789,41.4435 L20.789,45.3225 C20.789,45.5535012 20.8182497,45.7597491 20.87675,45.94125 C20.9352503,46.1227509 21.0199994,46.2772494 21.131,46.40475 C21.2420006,46.5322506 21.3777492,46.6297497 21.53825,46.69725 C21.6987508,46.7647503 21.880999,46.7985 22.085,46.7985 L22.085,46.7985 Z M29.384,45.4935 L28.7765,43.698 C28.7314998,43.5839994 28.6835003,43.4497508 28.6325,43.29525 C28.5814997,43.1407492 28.5305003,42.9735009 28.4795,42.7935 C28.4344998,42.9765009 28.3865003,43.1459992 28.3355,43.302 C28.2844997,43.4580008 28.2365002,43.5929994 28.1915,43.707 L27.5885,45.4935 L29.384,45.4935 Z M31.8005,48 L30.6215,48 C30.4894993,48 30.3830004,47.9692503 30.302,47.90775 C30.2209996,47.8462497 30.1595002,47.7675005 30.1175,47.6715 L29.7305,46.5285 L27.2375,46.5285 L26.8505,47.6715 C26.8174998,47.7555004 26.7582504,47.8312497 26.67275,47.89875 C26.5872496,47.9662503 26.4815006,48 26.3555,48 L25.1675,48 L27.7055,41.4435 L29.2625,41.4435 L31.8005,48 Z M34.451,44.526 C34.658001,44.526 34.8342493,44.4997503 34.97975,44.44725 C35.1252507,44.3947497 35.2444995,44.3220005 35.3375,44.229 C35.4305005,44.1359995 35.4979998,44.0272506 35.54,43.90275 C35.5820002,43.7782494 35.603,43.6440007 35.603,43.5 C35.603,43.2119986 35.5092509,42.9870008 35.32175,42.825 C35.1342491,42.6629992 34.844002,42.582 34.451,42.582 L33.839,42.582 L33.839,44.526 L34.451,44.526 Z M37.682,48 L36.305,48 C36.0499987,48 35.8670006,47.904001 35.756,47.712 L34.667,45.8085 C34.6159997,45.7274996 34.5590003,45.6682502 34.496,45.63075 C34.4329997,45.5932498 34.3430006,45.5745 34.226,45.5745 L33.839,45.5745 L33.839,48 L32.318,48 L32.318,41.4435 L34.451,41.4435 C34.9250024,41.4435 35.3292483,41.4922495 35.66375,41.58975 C35.9982517,41.6872505 36.2712489,41.8229991 36.48275,41.997 C36.6942511,42.1710009 36.8479995,42.3764988 36.944,42.6135 C37.0400005,42.8505012 37.088,43.1084986 37.088,43.3875 C37.088,43.6005011 37.0595003,43.8014991 37.0025,43.9905 C36.9454997,44.1795009 36.8615006,44.3542492 36.7505,44.51475 C36.6394994,44.6752508 36.5022508,44.8184994 36.33875,44.9445 C36.1752492,45.0705006 35.9870011,45.1739996 35.774,45.255 C35.8730005,45.3060003 35.9659996,45.3697496 36.053,45.44625 C36.1400004,45.5227504 36.2179997,45.6134995 36.287,45.7185 L37.682,48 Z M41.7005,45.4935 L41.093,43.698 C41.0479998,43.5839994 41.0000003,43.4497508 40.949,43.29525 C40.8979997,43.1407492 40.8470003,42.9735009 40.796,42.7935 C40.7509998,42.9765009 40.7030003,43.1459992 40.652,43.302 C40.6009997,43.4580008 40.5530002,43.5929994 40.508,43.707 L39.905,45.4935 L41.7005,45.4935 Z M44.117,48 L42.938,48 C42.8059993,48 42.6995004,47.9692503 42.6185,47.90775 C42.5374996,47.8462497 42.4760002,47.7675005 42.434,47.6715 L42.047,46.5285 L39.554,46.5285 L39.167,47.6715 C39.1339998,47.7555004 39.0747504,47.8312497 38.98925,47.89875 C38.9037496,47.9662503 38.7980006,48 38.672,48 L37.484,48 L40.022,41.4435 L41.579,41.4435 L44.117,48 Z M50.3585,41.4435 L50.3585,48 L49.5665,48 C49.4494994,48 49.3512504,47.9812502 49.27175,47.94375 C49.1922496,47.9062498 49.1135004,47.8410005 49.0355,47.748 L45.944,43.8375 C45.9560001,43.9545006 45.96425,44.0677495 45.96875,44.17725 C45.97325,44.2867505 45.9755,44.3894995 45.9755,44.4855 L45.9755,48 L44.6345,48 L44.6345,41.4435 L45.4355,41.4435 C45.5015003,41.4435 45.5569998,41.4465 45.602,41.4525 C45.6470002,41.4585 45.6874998,41.4697499 45.7235,41.48625 C45.7595002,41.5027501 45.7939998,41.5259998 45.827,41.556 C45.8600002,41.5860001 45.8974998,41.6264997 45.9395,41.6775 L49.058,45.615 C49.0429999,45.4889994 49.0325,45.3667506 49.0265,45.24825 C49.0205,45.1297494 49.0175,45.0180005 49.0175,44.913 L49.0175,41.4435 L50.3585,41.4435 Z M56.339,42.6495 L54.494,42.6495 L54.494,48 L52.973,48 L52.973,42.6495 L51.128,42.6495 L51.128,41.4435 L56.339,41.4435 L56.339,42.6495 Z M58.6385,42.6135 L58.6385,44.1435 L60.6995,44.1435 L60.6995,45.2685 L58.6385,45.2685 L58.6385,46.83 L61.3295,46.83 L61.3295,48 L57.1085,48 L57.1085,41.4435 L61.3295,41.4435 L61.3295,42.6135 L58.6385,42.6135 Z M63.7955,42.6135 L63.7955,44.1435 L65.8565,44.1435 L65.8565,45.2685 L63.7955,45.2685 L63.7955,46.83 L66.4865,46.83 L66.4865,48 L62.2655,48 L62.2655,41.4435 L66.4865,41.4435 L66.4865,42.6135 L63.7955,42.6135 Z"/>
    <polygon fill="#FFFFFF" points="39 18.5 36.061 20.045 36.622 16.773 34.245 14.455 37.531 13.977 39 11 40.469 13.977 43.755 14.455 41.378 16.773 41.939 20.045"/>
    <polygon fill="#FFFFFF" points="27.949 20.842 25.659 22.045 26.097 19.496 24.245 17.691 26.804 17.319 27.949 15 29.093 17.319 31.652 17.691 29.8 19.496 30.238 22.045"/>
    <polygon fill="#FFFFFF" points="49.949 20.842 47.659 22.045 48.097 19.496 46.245 17.691 48.804 17.319 49.949 15 51.093 17.319 53.652 17.691 51.8 19.496 52.238 22.045"/>
    <polygon fill="#FFFFFF" points="39 65.5 36.061 67.045 36.622 63.773 34.245 61.455 37.531 60.977 39 58 40.469 60.977 43.755 61.455 41.378 63.773 41.939 67.045"/>
    <polygon fill="#FFFFFF" points="27.949 60.842 25.659 62.045 26.097 59.496 24.245 57.691 26.804 57.319 27.949 55 29.093 57.319 31.652 57.691 29.8 59.496 30.238 62.045"/>
    <polygon fill="#FFFFFF" points="49.949 60.842 47.659 62.045 48.097 59.496 46.245 57.691 48.804 57.319 49.949 55 51.093 57.319 53.652 57.691 51.8 59.496 52.238 62.045"/>
  </g>
</svg>
