<svg xmlns="http://www.w3.org/2000/svg" width="120" height="120" viewBox="0 0 120 120">
  <g fill="none" fill-rule="evenodd" transform="rotate(-30 60 60)">
    <ellipse cx="60" cy="60" fill="#647C85" rx="60" ry="60"/>
    <ellipse cx="60" cy="60" fill="#647C85" stroke="#FFFFFF" rx="53.846" ry="53.846"/>
    <text fill="#FFFFFF" font-family="Lato-Black, Lato" font-size="13.846" font-weight="700">
      <tspan x="14.461" y="57.077">MONEY BACK</tspan> <tspan x="18.788" y="74.077">GUARANTEE</tspan>
    </text>
    <polygon fill="#FFFFFF" points="60 28.462 55.479 30.839 56.342 25.804 52.684 22.238 57.739 21.504 60 16.923 62.261 21.504 67.316 22.238 63.658 25.804 64.521 30.839"/>
    <polygon fill="#FFFFFF" points="42.998 32.064 39.476 33.916 40.149 29.994 37.3 27.217 41.237 26.645 42.998 23.077 44.759 26.645 48.696 27.217 45.847 29.994 46.519 33.916"/>
    <polygon fill="#FFFFFF" points="76.844 32.064 73.322 33.916 73.995 29.994 71.146 27.217 75.083 26.645 76.844 23.077 78.605 26.645 82.542 27.217 79.693 29.994 80.366 33.916"/>
    <polygon fill="#FFFFFF" points="60 100.769 55.479 103.146 56.342 98.112 52.684 94.546 57.739 93.811 60 89.231 62.261 93.811 67.316 94.546 63.658 98.112 64.521 103.146"/>
    <polygon fill="#FFFFFF" points="42.998 93.603 39.476 95.454 40.149 91.533 37.3 88.755 41.237 88.183 42.998 84.615 44.759 88.183 48.696 88.755 45.847 91.533 46.519 95.454"/>
    <polygon fill="#FFFFFF" points="76.844 93.603 73.322 95.454 73.995 91.533 71.146 88.755 75.083 88.183 76.844 84.615 78.605 88.183 82.542 88.755 79.693 91.533 80.366 95.454"/>
  </g>
</svg>
