<svg xmlns="http://www.w3.org/2000/svg" width="91" height="80" viewBox="0 0 91 80">
  <g fill="none" fill-rule="evenodd" transform="translate(1 1)">
    <path fill="#78878C" d="M64.7887968,77.6453573 L1.70338053,44.6845068 C0.161496552,43.8781675 -0.444906202,41.9564253 0.348983394,40.3922857 L19.9794416,1.72762505 C20.7743077,0.163485397 22.668706,-0.451670225 24.21059,0.354669029 L87.2960063,33.3155195 C88.8388667,34.1208682 89.4452695,36.0426104 88.6504034,37.6077407 L69.0199452,76.2714107 C68.2250791,77.8365409 66.3316573,78.4516965 64.7887968,77.6453573"/>
    <path stroke="#647C85" stroke-width="2" d="M64.7887968,77.6453573 L1.70338053,44.6845068 C0.161496552,43.8781675 -0.444906202,41.9564253 0.348983394,40.3922857 L19.9794416,1.72762505 C20.7743077,0.163485397 22.668706,-0.451670225 24.21059,0.354669029 L87.2960063,33.3155195 C88.8388667,34.1208682 89.4452695,36.0426104 88.6504034,37.6077407 L69.0199452,76.2714107 C68.2250791,77.8365409 66.3316573,78.4516965 64.7887968,77.6453573 L64.7887968,77.6453573 Z"/>
    <path fill="#000000" d="M44.9747126 34.2870294C44.9510829 34.2539478 44.9028389 34.2208663 44.8299807 34.1877847 44.4755352 34.0267297 43.9724195 33.9692723 43.3206335 34.0154123L41 38C41.5877888 37.9773652 42.3035718 37.5899627 43.1463645 36.8377923 43.8710087 36.1892195 44.4164609 35.5493524 44.7846904 34.9173203 44.9776663 34.5873752 45.0406788 34.3766979 44.9747126 34.2870294M45.3632273 37.2433349C44.9761715 37.9558717 44.3507708 38.6308051 43.4880438 39.2690993 42.7964362 39.7849413 42.0437145 40.2197913 41.2298788 40.5765418 40.5168813 40.8735125 40.0340801 41.0142843 39.7804567 40.9988573 39.6561914 40.987287 39.5278518 40.9496835 39.3964566 40.886047 39.0929233 40.7375616 38.7965201 40.4772301 38.5103025 40.1060168 38.2464934 39.7868697 38.0763926 39.4976125 38 39.237281L41.8420381 32.1755491C41.9550991 32.0154934 42.1139957 31.9653555 42.3177093 32.023207 42.3421549 32.0270637 42.5020701 32.1340889 42.7984733 32.3442824 42.8575503 32.3809217 43.0999694 32.41274 43.5267494 32.4387731 43.9535293 32.4648062 44.2916939 32.5390489 44.5402244 32.6595727 44.8447762 32.8080581 45.0933068 33.025001 45.2878533 33.3094372 45.39684 33.4791348 45.5394395 33.7712845 45.7146332 34.1878149 45.9713123 34.7933265 46.0548349 35.3380942 45.9652009 35.8240463 45.9020497 36.1489785 45.7013918 36.6223961 45.3632273 37.2433349M49.1058153 43.7234071C48.9964238 43.8767265 48.8606973 43.9750824 48.6976229 44.0194389 48.2793016 44.3280064 47.7526017 44.5864316 47.1175232 44.7956789 46.4338262 45.0155332 45.9547319 45.0579612 45.6802402 44.922963 45.6387119 44.9027132 45.603261 44.8805349 45.5728744 44.8573924 45.3196533 44.6172883 45.0411101 44.3366848 44.7382577 44.0136533 44.2064934 43.4225538 43.9613753 42.6694564 44.0049294 41.7553254 44.0494963 40.9337646 44.3108204 40.0813471 44.787889 39.1990371 45.3723233 38.1200153 46.102613 37.2743477 46.9817967 36.6629985 47.9156761 36.012114 48.7381382 35.8404734 49.450196 36.1480766 49.7246877 36.2666822 50.0467849 36.5897137 50.4175006 37.1190997 50.7872034 37.6475214 50.9806644 38.0881943 50.9988963 38.440154 51.0171282 38.793078 50.8094869 39.4420339 50.3759724 40.3870217 50.2837999 40.5904833 50.1480734 40.7765881 49.9698057 40.9453359 49.7571 41.146869 49.589974 41.2056897 49.4704537 41.1217979 49.2476191 40.9713713 48.9842692 40.751517 48.6804038 40.462235 48.3147526 40.109311 48.1395236 39.8788497 48.1557297 39.7698868 48.1587684 39.7303516 48.1678843 39.6975663 48.1820647 39.6715309 48.214477 39.6127103 48.2833531 39.5538896 48.389706 39.4941047 48.495046 39.4343197 48.5639221 39.3745348 48.5963344 39.3157141 48.775615 39.0650031 48.9295734 38.8220062 49.056184 38.5857593 49.2405289 38.2463351 49.3266241 37.9908027 49.3144695 37.8191621 48.7472542 37.9049824 48.1739616 38.231871 47.5976304 38.8017565 47.110433 39.2829288 46.6728669 39.8827068 46.2839193 40.6020546 45.9830926 41.1584403 45.7663354 41.6791478 45.6346604 42.1641772 45.5019725 42.6492067 45.4837406 42.9732025 45.5779389 43.1352004 45.6255444 43.2084852 45.8878815 43.1699142 46.3649501 43.0185233 46.8420186 42.8680967 47.1742447 42.7224914 47.3626412 42.5836361 47.3737829 42.5807433 47.460891 42.4910659 47.6259912 42.3146039 47.7303182 42.2172123 47.8245165 42.1728557 47.907573 42.1796056 48.0453253 42.1979268 48.2955078 42.4389951 48.6571075 42.9018463 49.0197201 43.3646974 49.1686141 43.638551 49.1058153 43.7234071"/>
    <path stroke="#647C85" stroke-width="4" d="M58.5461365,45.6907114 C54.8427866,52.983511 44.9960706,56.1710526 37.805014,52.4143072 C30.614942,48.6585603 27.9632214,38.9431491 31.6665713,31.6503495 C35.3709058,24.3575498 44.1462991,22.013828 51.3373557,25.7695749 C58.5284124,29.5253217 62.2494863,38.3979117 58.5461365,45.6907114 L58.5461365,45.6907114 Z" stroke-dasharray="9.509 9.509"/>
    <path fill="#F5F5F5" d="M9.13147415,63 C7.40171675,63 6,61.5865031 6,59.8422086 L6,18.1577914 C6,16.4134969 7.40171675,15 9.13147415,15 L79.8685258,15 C81.5982833,15 83,16.4134969 83,18.1577914 L83,59.8422086 C83,61.5865031 81.5982833,63 79.8685258,63 L9.13147415,63 Z"/>
    <path stroke="#647C85" stroke-width="2" d="M79.8685258,63 L9.13147415,63 C7.40171675,63 6,61.5865031 6,59.8422086 L6,18.1577914 C6,16.4134969 7.40171675,15 9.13147415,15 L79.8685258,15 C81.5982833,15 83,16.4134969 83,18.1577914 L83,59.8422086 C83,61.5865031 81.5982833,63 79.8685258,63 L79.8685258,63 Z"/>
    <path stroke="#647C85" stroke-width="2" d="M12 32L24 32M30 32L42 32M12 46L24 46M30 46L42 46" stroke-linecap="round"/>
    <path stroke="#EBB200" stroke-width="2" d="M12,53 L13,53" stroke-linecap="round"/>
    <path stroke="#F08481" stroke-width="2" d="M19,53 L22,53" stroke-linecap="round"/>
    <path stroke="#7DDEB1" stroke-width="2" d="M27,53 L28,53" stroke-linecap="round"/>
    <path stroke="#5BABDC" stroke-width="2" d="M34,53 L37,53" stroke-linecap="round"/>
    <path stroke="#647C85" stroke-width="2" stroke-linecap="round"/>
    <path stroke="#647C85" stroke-width="2" d="M12 25L24 25M30 25L42 25M12 39L24 39M30 39L42 39" stroke-linecap="round"/>
    <g transform="translate(50 24)">
      <ellipse cx="14" cy="14" fill="none" stroke="#647C85" stroke-width="2" stroke-dasharray="4" rx="14" ry="14"/>
      <g fill="#647C85" transform="translate(5 5)">
        <path d="M18.9944629,6.86987538 C18.9688825,6.75834932 18.8597613,6.68463409 18.7454593,6.69909117 C16.860123,6.9389834 13.67537,7.07386321 13.1546967,6.41471562 C11.9585727,4.9011704 12.8736367,0.310649869 12.8830269,0.264418983 C12.9063406,0.150192152 12.8351042,0.0377128814 12.7203165,0.00752776631 C12.6060144,-0.0224984797 12.4865316,0.0397781787 12.4483229,0.150192152 C12.435209,0.18816185 11.1008216,3.96209558 8.30042133,4.84858475 C5.76570051,5.65119107 2.20841346,3.00046136 2.17279526,2.97345363 C2.07549281,2.90005614 1.93609611,2.91657852 1.85919318,3.01078785 C1.78245214,3.10499718 1.79669942,3.24210115 1.89124956,3.31899376 C1.91958222,3.34202977 4.69796393,5.62910828 4.81841822,7.64293206 C4.47745488,8.69941109 1.34467205,9.92905736 0.154376475,10.3171744 C0.0374840096,10.355303 -0.0264668544,10.4782676 0.0104465557,10.5936065 C0.0475218667,10.7087865 0.172023675,10.7732874 0.289887546,10.7391305 C0.330848479,10.7272153 4.39941863,9.56763032 6.08383582,11.6527863 C6.8705124,12.6268123 5.66888376,15.6133911 5.13946774,16.6819442 C5.08733565,16.7874332 5.12813468,16.9146873 5.23239887,16.9718802 C5.26704567,16.9909445 5.30476858,17 5.3421677,17 C5.41696592,17 5.48982134,16.9634601 5.53272508,16.8973706 C6.30434487,15.7048997 8.5941096,12.5824878 9.90437376,12.4553926 C12.1552823,12.2359945 14.4983124,15.4033663 14.521788,15.4354578 C14.5930244,15.5331623 14.7311259,15.5569926 14.8321521,15.4891556 C14.9333402,15.4213185 14.9607014,15.2865975 14.8938364,15.1857157 C14.1894054,14.1247884 12.4985122,11.1269298 13.1257164,10.0123047 C13.7229689,8.95058302 17.4560803,7.57096439 18.8440569,7.12883189 C18.9547972,7.09356297 19.0200432,6.98140143 18.9944629,6.86987538"/>
        <path d="M16.3166832 3.24212581C17.0115636 3.69346625 17.2091004 4.62167544 16.7577127 5.31706648 16.3076379 6.01099876 15.3778725 6.20909841 14.6834299 5.7581956 13.9885495 5.30656341 13.7910127 4.37806247 14.2419627 3.68383843 14.6929128 2.98844739 15.6218028 2.79093125 16.3166832 3.24212581M2.54442456 6.16159542C3.00796227 6.46114626 3.13961172 7.08143759 2.83787118 7.54405673 2.53863198 8.00746555 1.91974792 8.13973646 1.45555196 7.83821144.992145896 7.53721286.860496446 6.91823766 1.16184204 6.45561852 1.46252938 5.9922097 2.08154509 5.86059685 2.54442456 6.16159542M4.54442526 12.1614596C5.00748252 12.4614755 5.13945986 13.0807596 4.83859967 13.5442869 4.53773948 14.0080815 3.91903721 14.1392382 3.45531137 13.8384201 2.99185296 13.537602 2.86094535 12.9189863 3.16140439 12.4559939 3.46226459 11.9921993 4.08096685 11.8606415 4.54442526 12.1614596M11.3160659 14.2416125C12.0115658 14.6937478 12.2092868 15.6222653 11.757506 16.3168706 11.3073298 17.0112976 10.378808 17.209196 9.68366466 16.7577738 8.98923446 16.30653 8.79044379 15.3774776 9.24222456 14.6835854 9.69293561 13.9884453 10.6216357 13.7912601 11.3160659 14.2416125M16.3167067 10.2418095C17.0120395 10.692573 17.2086671 11.621475 16.7579853 12.3162622 16.3074714 13.0108814 15.3792416 13.209392 14.6835729 12.7579567 13.988408 12.307697 13.7912767 11.378627 14.2416227 10.683504 14.6928082 9.98804505 15.6218776 9.79138183 16.3167067 10.2418095M8.31598935 1.24237932C9.01159848 1.6932905 9.20913513 2.6215169 8.75774784 3.31662908 8.3069441 4.01144951 7.37805498 4.20896932 6.68361299 3.75805814 5.98800386 3.30685521 5.79119666 2.37833705 6.24214629 1.68351662 6.69309591.988842078 7.62198503.790592874 8.31598935 1.24237932"/>
      </g>
    </g>
  </g>
</svg>
