<svg xmlns="http://www.w3.org/2000/svg" width="76" height="74" viewBox="0 0 76 74" xmlns:xlink="http://www.w3.org/1999/xlink">
  <defs>
    <path id="b" d="M23.8868434,3.49011394 C19.2114966,5.39002857 15.3690011,8.58603882 11.8443428,12.0397298 C8.32164652,15.4934208 4.75676812,19.1355648 2.81835323,23.7190127 C0.947625903,28.139968 0,33.1493583 0,38.2347067 C0,43.3181321 1.3625801,48.1592608 3.23330743,52.580216 C5.17172232,57.1636639 7.89393959,61.3932816 11.4185978,64.8469725 C14.9422751,68.301625 19.3772821,70.6861333 24.0545909,72.5860479 C28.5651332,74.4186579 33.383703,76.0253165 38.57014,76.0253165 C43.758539,76.0253165 48.7370084,74.7965255 53.2475507,72.962954 C57.9228976,71.0630394 62.2558827,68.3564303 65.77956,64.9027393 C69.3032372,61.4480868 72.3069955,57.3001962 74.2463914,52.7177098 C76.1171187,48.2967546 77,43.3181321 77,38.2347067 C77,33.1493583 75.3637267,28.4774528 73.4939804,24.0564976 C71.5536035,19.4730497 69.1217561,15.1972802 65.5980788,11.7435893 C62.0734206,8.28989828 57.8934682,5.47560165 53.2171404,3.57568702 C48.706598,1.74307705 43.758539,0.987341772 38.57014,0.987341772 C33.383703,0.987341772 28.3983667,1.65654247 23.8868434,3.49011394 L23.8868434,3.49011394 Z"/>
    <path id="a" d="M37.6785258,76.0253165 C42.8143434,76.0253165 47.5519603,74.8222363 52.0176353,72.9984893 C56.6474467,71.1087546 61.3063947,69.046878 64.7950212,65.6116922 C68.2836477,62.17555 70.3426366,57.5745815 72.2627409,53.015692 C74.1138885,48.6184247 76,43.9677263 76,38.9105819 C76,33.8534375 74.7626642,28.937832 72.9105454,24.5405646 C70.9904411,19.9816752 67.7912386,16.1304799 64.3016409,12.6943377 C60.8130144,9.25915192 56.8853959,6.14625386 52.2565557,4.25556277 C47.7899095,2.43181573 42.8143434,1.97468354 37.6785258,1.97468354 C32.5427082,1.97468354 27.6564944,2.64603668 23.1908194,4.46882737 C18.561008,6.35951845 14.4818791,9.19794594 10.9922813,12.6331318 C7.50365486,16.0692739 4.70750907,20.1213013 2.78740479,24.6801907 C0.93625722,29.0774581 0,33.8534375 0,38.9105819 C0,43.9677263 0.569135613,48.8928953 2.42125441,53.291119 C4.34038747,57.8500084 7.34146092,61.9125555 10.8300874,65.3477414 C14.3187139,68.7838835 18.5425548,71.5065935 23.171395,73.3972845 C27.6380412,75.2210316 32.5427082,76.0253165 37.6785258,76.0253165 L37.6785258,76.0253165 Z"/>
    <mask id="c" width="76" height="74.051" x="0" y="0" fill="white">
      <use xlink:href="#a"/>
    </mask>
  </defs>
  <g fill="none" fill-rule="evenodd" transform="translate(0 -2)">
    <g transform="translate(0 .987)"/>
    <use stroke="#647C85" stroke-width="6" mask="url(#c)" stroke-dasharray="10" xlink:href="#a"/>
    <g fill="#647C85" transform="translate(13 15)">
      <path d="M50.2408988,18.7049322 C45.2137631,19.3604193 36.7218107,19.7289679 35.3334665,17.9278978 C32.1440738,13.7922519 34.5840369,1.24900757 34.6090755,1.12268523 C34.6712401,0.810569201 34.4812925,0.503228243 34.1752179,0.420749737 C33.8704384,0.338705328 33.5518444,0.508871509 33.4499635,0.810569201 C33.4149958,0.914318479 29.8569321,11.2263022 22.3898333,13.6485657 C15.6311526,15.8416257 6.14586064,8.59871064 6.05088684,8.52491408 C5.7914357,8.32436108 5.4197428,8.36950721 5.21468574,8.62692697 C5.01006038,8.88434673 5.0480499,9.25897278 5.30016216,9.46907592 C5.37570949,9.53202004 12.7840972,15.7812862 13.1052814,21.2839048 C12.1961231,24.1706525 3.84274609,27.5305664 0.668894524,28.5910663 C0.357207795,28.6952497 0.186686662,29.0312411 0.28511405,29.3463958 C0.383973137,29.6611164 0.715949722,29.83736 1.03022665,29.744029 C1.13944651,29.7114717 11.9880442,26.5429948 16.4794413,32.2405232 C18.5770671,34.9019743 15.3729966,43.0625713 13.9613406,45.9823104 C13.8223335,46.2705511 13.9311217,46.6182631 14.2091359,46.7745382 C14.3015195,46.8266299 14.4021054,46.8513734 14.5018279,46.8513734 C14.7012728,46.8513734 14.8955374,46.751531 15.0099377,46.5709465 C17.0674154,43.3126114 23.1729354,34.7808612 26.666676,34.4335832 C32.6685881,33.8340947 38.9161371,42.4886946 38.9787335,42.5763823 C39.1686811,42.8433522 39.5369204,42.9084668 39.8063006,42.7231072 C40.0761125,42.5377476 40.1490696,42.169633 39.9707779,41.8939811 C38.0924553,38.9950787 33.5837902,30.8036608 35.2561924,27.7580334 C36.8487303,24.8569605 46.8028474,21.0872587 50.5038036,19.8791656 C50.7990857,19.782796 50.9730605,19.4763233 50.904852,19.1715869 C50.8366435,18.8668505 50.5456784,18.6654293 50.2408988,18.7049322 Z"/>
      <path d="M43.3106178 8.81862438C45.3668005 10.1617217 45.951321 12.9238835 44.6156441 14.9932258 43.2838525 17.0582271 40.5326343 17.6477314 38.4777467 16.3059363 36.421564 14.9619708 35.8370435 12.1989408 37.1714253 10.1330713 38.5058071 8.063729 41.2544351 7.47596112 43.3106178 8.81862438M8.29239793 17.4111049C9.81241035 18.3991106 10.2441094 20.4450116 9.25465515 21.970864 8.27340317 23.4993209 6.24398583 23.9355888 4.72181491 22.9410717 3.20223418 21.9482909 2.77053511 19.9067308 3.75869428 18.3808785 4.74469496 16.8524215 6.77454399 16.4183241 8.29239793 17.4111049M12.0560368 32.7177265C13.5510106 33.691841 13.9770976 35.7025802 13.0057747 37.2075959 12.0344518 38.7134797 10.0369802 39.1393293 8.53984783 38.1626101 7.04357885 37.185891 6.62094546 35.1773223 7.59097328 33.674043 8.56229618 32.1681591 10.5597678 31.7410073 12.0560368 32.7177265M29.6555877 38.8060727C31.3396457 39.9069437 31.8184 42.167723 30.7244746 43.8589664 29.6344344 45.5497758 27.3861456 46.0316239 25.702951 44.9324893 24.0214831 43.8337888 23.5401386 41.5717072 24.6340641 39.8822002 25.7253993 38.1896544 27.9741198 37.7095427 29.6555877 38.8060727M43.5397205 26.9235246C45.3273863 28.088642 45.832906 30.4896347 44.6742256 32.2854957 43.515977 34.0809225 41.1295446 34.5940256 39.3410153 33.4271718 37.5537812 32.2633567 37.0469665 29.8619299 38.2047834 28.0652008 39.3647588 26.2676034 41.7533497 25.7592754 43.5397205 26.9235246M23.694212 3.26374042C25.7525532 4.60553548 26.3370737 7.36769723 25.0013968 9.43617134 23.6674467 11.5037773 20.9188187 12.0915451 18.8639311 10.7497501 16.8055899 9.40708681 16.2232279 6.64405687 17.5576097 4.57645096 18.8919916 2.50927914 21.6406195 1.91934078 23.694212 3.26374042"/>
    </g>
  </g>
</svg>
