<svg xmlns="http://www.w3.org/2000/svg" width="80" height="80" viewBox="0 0 80 80">
  <g fill="none" fill-rule="evenodd" transform="translate(1 1)">
    <polygon fill="#F5F5F5" points="64.552 0 13.449 0 0 21.517 0 78 78 78 78 21.517"/>
    <polygon stroke="#647C85" stroke-width="2" points="64.552 0 13.449 0 0 21.517 0 78 78 78 78 21.517" stroke-linecap="round"/>
    <polygon fill="#78878C" points="33.667 28.56 39 34 44.334 28.56 47 31.281 47 0 31 0 31 31.281"/>
    <polygon stroke="#647C85" stroke-width="2" points="33.667 28.56 39 34 44.334 28.56 47 31.281 47 0 31 0 31 31.281" stroke-linecap="round"/>
    <polygon fill="#78878C" points="44.333 72.5 39 67 33.666 72.5 31 69.749 31 78 47 78 47 69.749"/>
    <g transform="translate(0 1)">
      <polygon stroke="#647C85" stroke-width="2" points="44.333 71.5 39 66 33.666 71.5 31 68.749 31 77 47 77 47 68.749" stroke-linecap="round"/>
      <path stroke="#647C85" stroke-width="2" d="M0,21 L78,21" stroke-linecap="round"/>
      <path fill="#647C85" d="M41 1.5C41 2.32862454 40.3286245 3 39.5 3 38.6713755 3 38 2.32862454 38 1.5 38 .671375465 38.6713755 0 39.5 0 40.3286245 0 41 .671375465 41 1.5M37 5.5C37 6.32862454 36.3286245 7 35.5 7 34.6713755 7 34 6.32862454 34 5.5 34 4.67137546 34.6713755 4 35.5 4 36.3286245 4 37 4.67137546 37 5.5M37 13.5C37 14.3286245 36.3286245 15 35.5 15 34.6713755 15 34 14.3286245 34 13.5 34 12.6713755 34.6713755 12 35.5 12 36.3286245 12 37 12.6713755 37 13.5M41 9.5C41 10.3286245 40.3286245 11 39.5 11 38.6713755 11 38 10.3286245 38 9.5 38 8.67137546 38.6713755 8 39.5 8 40.3286245 8 41 8.67137546 41 9.5M45 5.5C45 6.32862454 44.3286245 7 43.5 7 42.6713755 7 42 6.32862454 42 5.5 42 4.67137546 42.6713755 4 43.5 4 44.3286245 4 45 4.67137546 45 5.5M45 13.5C45 14.3286245 44.3286245 15 43.5 15 42.6713755 15 42 14.3286245 42 13.5 42 12.6713755 42.6713755 12 43.5 12 44.3286245 12 45 12.6713755 45 13.5M41 17.5C41 18.3286245 40.3286245 19 39.5 19 38.6713755 19 38 18.3286245 38 17.5 38 16.6713755 38.6713755 16 39.5 16 40.3286245 16 41 16.6713755 41 17.5M37 22.5C37 23.3286245 36.3286245 24 35.5 24 34.6713755 24 34 23.3286245 34 22.5 34 21.6713755 34.6713755 21 35.5 21 36.3286245 21 37 21.6713755 37 22.5M41 26.5C41 27.3286245 40.3286245 28 39.5 28 38.6713755 28 38 27.3286245 38 26.5 38 25.6713755 38.6713755 25 39.5 25 40.3286245 25 41 25.6713755 41 26.5M45 22.5C45 23.3286245 44.3286245 24 43.5 24 42.6713755 24 42 23.3286245 42 22.5 42 21.6713755 42.6713755 21 43.5 21 44.3286245 21 45 21.6713755 45 22.5"/>
    </g>
    <g transform="translate(27 39)">
      <ellipse cx="11.5" cy="11.356" fill="none" stroke="#647C85" stroke-width="2" stroke-dasharray="4" rx="11.5" ry="11.356"/>
      <g fill="#647C85" transform="translate(4 4)">
        <path d="M15.5564552,5.92530804 C15.535505,5.83129018 15.4461348,5.76914732 15.3525215,5.78133482 C13.8084331,5.98356696 11.2001238,6.09727232 10.7736928,5.54160268 C9.79406851,4.26566518 10.543505,0.395799107 10.5511956,0.356825893 C10.5702895,0.26053125 10.511947,0.165709821 10.4179359,0.140263393 C10.3243227,0.114950893 10.2264663,0.167450893 10.1951735,0.26053125 C10.1844331,0.292540179 9.09157127,3.47401339 6.79804641,4.22133482 C4.72211271,4.89794196 1.80869834,2.66334375 1.77952707,2.64057589 C1.69983646,2.57870089 1.58567072,2.59262946 1.52268729,2.67204911 C1.45983646,2.75146875 1.47150497,2.86704911 1.54894144,2.93187054 C1.57214586,2.95129018 3.84763757,4.87932589 3.9462895,6.57700446 C3.66704088,7.46762946 1.10129503,8.50423661 0.126444199,8.83142411 C0.0307093923,8.86356696 -0.0216662983,8.96722768 0.00856574585,9.06445982 C0.0389303867,9.16155804 0.140897238,9.21593304 0.237427624,9.18713839 C0.270974586,9.17709375 3.60312928,8.19954911 4.98266519,9.95736161 C5.62695249,10.7784777 4.64281989,13.2962009 4.20922873,14.1970045 C4.1665326,14.285933 4.19994696,14.3932098 4.28533923,14.4414241 C4.31371492,14.4574955 4.34460994,14.4651295 4.37523978,14.4651295 C4.43649945,14.4651295 4.49616796,14.4343259 4.53130608,14.3786116 C5.16326188,13.3733438 7.0385768,10.7411116 8.11168177,10.6339688 C9.95517348,10.4490134 11.8741127,13.1191473 11.8933392,13.1462009 C11.9516818,13.228567 12.0647867,13.2486563 12.1475271,13.1914688 C12.2304,13.1342813 12.2528088,13.0207098 12.1980464,12.9356652 C11.6211182,12.0412902 10.2362785,9.51405804 10.749958,8.57441518 C11.2391072,7.67937054 14.2965215,6.51633482 15.4332729,6.14361161 C15.5239691,6.11387946 15.5774055,6.01932589 15.5564552,5.92530804"/>
        <path d="M13.2238807 2.73119196C13.8554387 3.14556696 14.0349746 3.99775446 13.6247204 4.63619196 13.2156597 5.27329018 12.370621 5.45516518 11.7394608 5.04119196 11.1079028 4.62654911 10.9283669 3.77409375 11.3382232 3.13672768 11.7480796 2.49829018 12.5923227 2.31695089 13.2238807 2.73119196M2.46800884 5.38216071C2.93488177 5.68698214 3.06747845 6.3181875 2.76356685 6.78894643 2.46217459 7.26050893 1.83883757 7.39510714 1.37130166 7.08827679.904561326 6.78198214.771964641 6.15211607 1.07547845 5.68135714 1.37832928 5.20979464 2.0017989 5.07586607 2.46800884 5.38216071M3.62401326 10.1045893C4.08319558 10.405125 4.21406851 11.0254821 3.91572597 11.4898125 3.61738343 11.9544107 3.00385856 12.0857946 2.54401326 11.7844554 2.08443315 11.4831161 1.95462099 10.8634286 2.25256575 10.3996339 2.55090829 9.93503571 3.16443315 9.80325 3.62401326 10.1045893M9.02972818 11.9829777C9.54698785 12.3226205 9.69403757 13.0201205 9.35803757 13.5419062 9.02323094 14.063558 8.3326674 14.2122187 7.81567293 13.8731116 7.29920884 13.5341384 7.15136354 12.8362366 7.48736354 12.3149866 7.82256796 11.7927991 8.51326409 11.6446741 9.02972818 11.9829777M13.2942497 8.31695089C13.8433326 8.67641518 13.9986033 9.41717411 13.6427138 9.97123661 13.2869569 10.5251652 12.5539624 10.6834688 12.0046144 10.3234688 11.4556641 9.96440625 11.2999956 9.22351339 11.6556199 8.66918304 12.0119072 8.11458482 12.7455646 7.95775446 13.2942497 8.31695089M7.19868729 1.01738839C7.83090829 1.43136161 8.0104442 2.28354911 7.60019006 2.92171875 7.1904663 3.55962054 6.3462232 3.74095982 5.71506298 3.32698661 5.08284199 2.91274554 4.90396906 2.06029018 5.31382541 1.42238839 5.72368177.784620536 6.56792486.602611607 7.19868729 1.01738839"/>
      </g>
    </g>
  </g>
</svg>
