<svg xmlns="http://www.w3.org/2000/svg" width="42" height="61" viewBox="0 0 42 61">
  <g fill="#F5F5F5" fill-rule="evenodd" stroke="#647C85" stroke-width="2" transform="translate(1 1)">
    <path d="M18 45C14.0751409 45 11 48.0481564 11 51.9402932L11 52.0597068C11 55.9518436 14.0745243 59 18 59 21.9254757 59 25 55.9518436 25 52.0597068L25 51.9402932C25 48.0481564 21.9254757 45 18 45L18 45zM19.7028669.55271368e-15C13.1698069.55271368e-15 7.47243394 1.97578543 2.76627848 5.87483345 1.00901459 7.33774886.55271368e-15 9.44561376.55271368e-15 11.6585243.55271368e-15 15.7282716 3.44411344 19.1662 7.52118234 19.1662 9.1530932 19.1662 10.8353 18.5799525 12.2575154 17.5155927 14.5363098 15.8086006 16.8321275 15.0138066 19.480017 15.0138066 22.4737881 15.0138066 23.9919526 16.0055612 23.9919526 17.960492L23.9919526 18.1087918C23.9919526 19.0711955 23.9919526 21.3258154 16.5930282 22.2604128 14.7808256 22.4859521 13.2409951 23.3247726 12.2575154 24.6216232 11.2724881 25.9215633 10.8956552 27.5582675 11.1664797 29.3448163L11.9100863 34.3893255C12.3921538 37.6403344 15.044686 40 18.2172012 40L18.8114675 40C21.8980926 40 24.503424 37.7453801 25.0783456 34.6364918 34.9820095 32.2065383 40 26.5526097 40 17.8129646L40 17.6646649C40 6.93378647 32.033118.55271368e-15 19.7028669.55271368e-15L19.7028669.55271368e-15z"/>
  </g>
</svg>
