<svg xmlns="http://www.w3.org/2000/svg" width="77" height="92" viewBox="0 0 77 92">
  <g fill="none" fill-rule="evenodd" transform="translate(1 1)">
    <path fill="#D0E8F9" d="M67.5599974,56.9802186 C67.5599974,55.4899311 68.9423462,54.2814393 70.0248433,54.2814393 L70.0248433,54.4006178 C70.0248433,52.412454 68.7756417,50.9210526 66.8444668,50.9210526 L59.848288,50.9210526 C57.9171132,50.9210526 55.952381,52.412454 55.952381,54.4006178 L55.952381,54.3404717 C58.1173752,54.3404717 58.7744509,55.5188903 58.7744509,57.0102917 C58.7744509,58.5005792 57.7006138,59.6945913 56.2511502,59.6945913 L63.2960413,68.6842105 L70.2380952,59.6834531 C68.7886316,59.6834531 67.5599974,58.4705061 67.5599974,56.9802186 L67.5599974,56.9802186 Z"/>
    <path stroke="#647C85" stroke-width="2" d="M67.5599974,56.9802186 C67.5599974,55.4899311 68.9423462,54.2814393 70.0248433,54.2814393 L70.0248433,54.4006178 C70.0248433,52.412454 68.7756417,50.9210526 66.8444668,50.9210526 L59.848288,50.9210526 C57.9171132,50.9210526 55.952381,52.412454 55.952381,54.4006178 L55.952381,54.3404717 C58.1173752,54.3404717 58.7744509,55.5188903 58.7744509,57.0102917 C58.7744509,58.5005792 57.7006138,59.6945913 56.2511502,59.6945913 L63.2960413,68.6842105 L70.2380952,59.6834531 C68.7886316,59.6834531 67.5599974,58.4705061 67.5599974,56.9802186 L67.5599974,56.9802186 Z" stroke-linejoin="round"/>
    <polygon stroke="#647C85" stroke-width="2" points="61.905 59.639 63.39 58.026 64.75 58.026 66.667 59.639 66.667 60.992 64.75 62.763 63.39 62.763 61.905 60.992" stroke-linejoin="round"/>
    <path stroke="#647C85" stroke-width="2" d="M63.0952381,68.6842105 L63.102381,61.5789474" stroke-linejoin="round"/>
    <polygon fill="#5BAADC" points="59.524 47.368 67.857 47.368 67.857 4.737 59.524 4.737"/>
    <polygon stroke="#647C85" stroke-width="2" points="59.524 47.368 67.857 47.368 67.857 4.737 59.524 4.737" stroke-linejoin="round"/>
    <polygon fill="#EBB200" points="60.714 4.737 66.667 4.737 66.667 0 60.714 0"/>
    <polygon stroke="#647C85" stroke-width="2" points="60.714 4.737 66.667 4.737 66.667 0 60.714 0" stroke-linejoin="round"/>
    <polyline stroke="#647C85" stroke-width="2" points="55.952 20.132 55.952 8.289 59.524 8.289" stroke-linecap="round" stroke-linejoin="round"/>
    <path stroke="#647C85" stroke-width="2" d="M59.5238095 20.1315789L67.8571429 20.1315789M59.5238095 24.8684211L63.0952381 24.8684211M59.5238095 28.4210526L61.9047619 28.4210526" stroke-linecap="round" stroke-linejoin="round"/>
    <path fill="#FFFFFF" d="M59.5238425,50.9210526 L66.6666667,50.9210526 L66.6666667,46.1842105 L59.970269,46.1842105 L59.970269,50.6688158 C59.970269,50.6688158 59.5193782,50.9210526 59.5238425,50.9210526"/>
    <path stroke="#647C85" stroke-width="2" d="M59.5238425,50.9210526 L66.6666667,50.9210526 L66.6666667,46.1842105 L59.970269,46.1842105 L59.970269,50.6688158 C59.970269,50.6688158 59.5193782,50.9210526 59.5238425,50.9210526 L59.5238425,50.9210526 Z" stroke-linejoin="round"/>
    <polygon fill="#F5F5F5" points="0 78.158 50 78.158 50 15.395 0 15.395"/>
    <polygon stroke="#647C85" stroke-width="2" points="0 78.158 50 78.158 50 15.395 0 15.395" stroke-linecap="round"/>
    <path fill="#78878C" d="M39.226731,30.743723 L10.7722038,30.743723 C10.7060587,30.8171788 10.6421184,30.7908663 10.5947144,30.743723 L0.0743334594,15.8223157 C-0.0844148231,15.6644405 0.028031877,15.3947368 0.251822859,15.3947368 L49.747112,15.3947368 C49.9720054,15.3947368 50.0844521,15.6644405 49.9257038,15.8223157 L39.4042204,30.743723 C39.3579189,30.7908663 39.2939786,30.8171788 39.226731,30.743723"/>
    <path stroke="#647C85" stroke-width="2" d="M39.226731,30.743723 L10.7722038,30.743723 C10.7060587,30.8171788 10.6421184,30.7908663 10.5947144,30.743723 L0.0743334594,15.8223157 C-0.0844148231,15.6644405 0.028031877,15.3947368 0.251822859,15.3947368 L49.747112,15.3947368 C49.9720054,15.3947368 50.0844521,15.6644405 49.9257038,15.8223157 L39.4042204,30.743723 C39.3579189,30.7908663 39.2939786,30.8171788 39.226731,30.743723 L39.226731,30.743723 Z" stroke-linecap="round"/>
    <path fill="#77878B" d="M39.226731,69.9114364 L10.7722038,69.9114364 C10.7060587,69.8423724 10.6421184,69.8671117 10.5947144,69.9114364 L0.0743334594,77.7558799 C-0.0844148231,77.9043161 0.028031877,78.1578947 0.251822859,78.1578947 L49.747112,78.1578947 C49.9720054,78.1578947 50.0844521,77.9043161 49.9257038,77.7558799 L39.4042204,69.9114364 C39.3579189,69.8671117 39.2939786,69.8423724 39.226731,69.9114364"/>
    <path stroke="#647C85" stroke-width="2" d="M39.226731 69.9114364L10.7722038 69.9114364C10.7060587 69.8423724 10.6421184 69.8671117 10.5947144 69.9114364L.0743334594 77.7558799C-.0844148231 77.9043161.028031877 78.1578947.251822859 78.1578947L49.747112 78.1578947C49.9720054 78.1578947 50.0844521 77.9043161 49.9257038 77.7558799L39.4042204 69.9114364C39.3579189 69.8671117 39.2939786 69.8423724 39.226731 69.9114364L39.226731 69.9114364zM25 30.7894737L25 69.8684211" stroke-linecap="round"/>
    <polygon fill="#F5F5F5" points="11.905 45 11.905 45.114 11.905 89.858 11.905 90 12.045 90 74.501 90 74.86 90 75 90 75 89.858 75 45.114 75 45"/>
    <polygon stroke="#647C85" stroke-width="2" points="11.905 45 11.905 45.114 11.905 89.858 11.905 90 12.045 90 74.501 90 74.86 90 75 90 75 89.858 75 45.114 75 45" stroke-linecap="round"/>
    <path fill="#F5F5F5" d="M75,88.1282778 L75,46.8717222 C75,46.3036365 74.3472789,45.9814707 73.8938209,46.3261881 L52.3809524,68.036943 L73.8938209,88.6738119 C74.3472789,89.0185293 75,88.6963635 75,88.1282778"/>
    <path stroke="#647C85" stroke-width="2" d="M75,46.8717222 C75,46.3036365 74.3472789,45.9814707 73.8938209,46.3261881 L52.3809524,68.036943 L73.8938209,88.6738119 C74.3472789,89.0185293 75,88.6963635 75,88.1282778 L75,46.8717222 Z" stroke-linecap="round"/>
    <g transform="translate(11.905 45)">
      <path fill="#F5F5F5" d="M0,0.00109962406 L29.5231322,29.9845489 C30.6631979,31.057782 32.4320402,31.057782 33.5721059,29.9845489 L63.0952381,0"/>
      <path stroke="#647C85" stroke-width="2" d="M0,0.00109962406 L29.5231322,29.9845489 C30.6631979,31.057782 32.4320402,31.057782 33.5721059,29.9845489 L63.0952381,0" stroke-linecap="round"/>
    </g>
    <g transform="translate(11.905 30.79)">
      <path fill="#F5F5F5" d="M0,57.3388041 L0,16.0822486 C0,15.5141628 0.652721088,15.191997 1.10617914,15.5367144 L22.6190476,37.2474694 L1.10617914,57.8843382 C0.652721088,58.2290556 0,57.9068898 0,57.3388041"/>
      <path stroke="#647C85" stroke-width="2" d="M0,57.3388041 L0,16.0822486 C0,15.5141628 0.652721088,15.191997 1.10617914,15.5367144 L22.6190476,37.2474694 L1.10617914,57.8843382 C0.652721088,58.2290556 0,57.9068898 0,57.3388041 L0,57.3388041 Z" stroke-linecap="round"/>
      <path fill="#78878C" d="M61.9047619,14.2105263 L57.9632503,0.105417786 L57.9338604,0 L3.67793504,13.9401975 C3.51574635,13.9819472 3.54731328,14.2105263 3.71494454,14.2105263 L61.9047619,14.2105263 Z"/>
      <path stroke="#647C85" stroke-width="2" d="M61.9047619,14.2105263 L57.9632503,0.105417786 L57.9338604,0 L3.67793504,13.9401975 C3.51574635,13.9819472 3.54731328,14.2105263 3.71494454,14.2105263 L61.9047619,14.2105263 L61.9047619,14.2105263 Z" stroke-linecap="round"/>
      <polygon fill="#F08481" points="53.571 15.395 52.154 9.474 44.048 11.905 44.883 15.395"/>
      <polygon stroke="#647C85" stroke-width="2" points="53.571 14.211 52.154 8.289 44.048 10.721 44.883 14.211" stroke-linecap="round"/>
      <path fill="#78878C" d="M3.7704487,13.9421546 L35.7142857,5.92105263 L3.57142857,5.92105263 L3.57142857,6.02881579 L3.57142857,14.2105263 L3.8080414,14.2105263 C3.63776862,14.2105263 3.60570426,13.983602 3.7704487,13.9421546"/>
      <path stroke="#647C85" stroke-width="2" d="M3.7704487,13.9421546 L35.7142857,5.92105263 L3.57142857,5.92105263 L3.57142857,6.02881579 L3.57142857,14.2105263 L3.8080414,14.2105263 C3.63776862,14.2105263 3.60570426,13.983602 3.7704487,13.9421546 L3.7704487,13.9421546 Z" stroke-linecap="round"/>
      <path fill="#78878C" stroke="#647C85" stroke-width="2" d="M39.2857143,38.9779615 C39.2857143,43.1476242 35.2306778,47.3684211 31.2395001,47.3684211 C27.2472582,47.3684211 23.8095238,43.1476242 23.8095238,38.9779615 C23.8095238,34.8082989 27.2472582,31.9736842 31.2395001,31.9736842 C35.2306778,31.9736842 39.2857143,34.8082989 39.2857143,38.9779615 L39.2857143,38.9779615 Z"/>
      <g fill="#FFFFFF" transform="translate(25 33.158)">
        <path d="M12.7322178,4.67787477 C12.715071,4.60365014 12.6419258,4.55458999 12.5653078,4.5642117 C11.301545,4.72386866 9.16676796,4.81363604 8.81775454,4.37494948 C8.01597869,3.3676304 8.62935675,0.312472979 8.63565114,0.281704652 C8.65127861,0.205682566 8.60352802,0.130823543 8.52658445,0.110734258 C8.44996646,0.0907507049 8.36987569,0.132198073 8.34426401,0.205682566 C8.33547356,0.230952773 7.44101815,2.74264215 5.56387727,3.33263275 C3.86482439,3.86679629 1.48033346,2.1026398 1.45645817,2.08466518 C1.3912352,2.03581649 1.29779597,2.04681273 1.24624704,2.10951245 C1.19480663,2.17221217 1.20435675,2.26345982 1.26773481,2.31463463 C1.28672652,2.32996593 3.14910813,3.85209939 3.22985004,5.19237195 C3.00129834,5.89549695 0.901357537,6.71387101 0.103488556,6.97217693 C0.0251341752,6.99755287 -0.0177328335,7.07939027 0.00701065509,7.15615249 C0.0318626677,7.23280898 0.11531768,7.27573661 0.194323204,7.25300399 C0.221779795,7.24507401 2.94898974,6.47332824 4.07807419,7.86107495 C4.60539266,8.50932448 3.79992699,10.4970007 3.44505328,11.2081614 C3.41010852,11.2783682 3.43745659,11.3630604 3.50734609,11.4011243 C3.53057024,11.4138123 3.55585635,11.4198391 3.58092541,11.4198391 C3.63106354,11.4198391 3.67989937,11.3955204 3.70865825,11.3515355 C4.22588398,10.557903 5.76073994,8.47982495 6.63902526,8.39523849 C8.14783544,8.2492211 9.71839582,10.3572216 9.73413181,10.3785797 C9.7818824,10.4436055 9.87445343,10.4594655 9.94217245,10.4143174 C10.01,10.3691694 10.0283406,10.2795078 9.98352013,10.2123672 C9.51133189,9.50628172 8.37790647,7.51109845 8.79832873,6.76927514 C9.19867403,6.06266095 11.7010221,5.14447486 12.631399,4.85021969 C12.7056294,4.82674695 12.7493646,4.75209939 12.7322178,4.67787477"/>
        <path d="M10.8231166 2.15620418C11.3400168 2.48334234 11.4869584 3.15612195 11.1511849 3.66015155 10.8163881 4.16312383 10.1247642 4.30670935 9.60818962 3.97988839 9.09128946 3.65253877 8.94434787 2.9795477 9.27979578 2.47636396 9.61524369 1.97233435 10.3062165 1.82917176 10.8231166 2.15620418M2.01994771 4.24907425C2.40206097 4.48972274 2.51058504 4.98804276 2.26184787 5.35969455 2.01517265 5.73198073 1.50500099 5.83824248 1.12234511 5.59600799.740340371 5.35419643.631816298 4.85693374.880227901 4.48528195 1.12809688 4.11299577 1.63837707 4.00726269 2.01994771 4.24907425M2.96608228 7.97730733C3.34190114 8.21457237 3.4490144 8.70432801 3.20483524 9.07090461 2.96065608 9.43769267 2.45851519 9.54141682 2.08215371 9.30351739 1.70600927 9.06561795 1.59976421 8.57639098 1.8436178 8.21023731 2.08779696 7.84344925 2.58993785 7.73940789 2.96608228 7.97730733M7.39040253 9.46024554C7.81375493 9.72838463 7.93410813 10.2790425 7.65910813 10.6909786 7.38508485 11.102809 6.81989148 11.2201727 6.39675612 10.9524565 5.97405485 10.6848461 5.85305051 10.133871 6.12805051 9.72235785 6.40239937 9.31010456 6.96770126 9.19316377 7.39040253 9.46024554M10.8807103 6.56601386C11.3301085 6.84980146 11.4571902 7.43461114 11.1659116 7.8720289 10.8747415 8.30934093 10.2748204 8.43431743 9.82520521 8.15010691 9.37591555 7.86663651 9.24850829 7.2817211 9.53956985 6.84409187 9.83117403 6.40625117 10.4316377 6.28243773 10.8807103 6.56601386M5.89178275.803201363C6.40922553 1.13002232 6.55616713 1.80280193 6.22039365 2.30662007 5.88505426 2.81022674 5.19408149 2.95338933 4.67750691 2.62656837 4.16006413 2.29953595 4.01366515 1.62654488 4.34911306 1.1229382 4.68456097.619437265 5.37553374.475746006 5.89178275.803201363"/>
      </g>
    </g>
  </g>
</svg>
