<svg xmlns="http://www.w3.org/2000/svg" width="80" height="80" viewBox="0 0 80 80">
  <g fill="none" fill-rule="evenodd" transform="translate(1 1)">
    <polygon fill="#F5F5F5" points="0 78 78 78 78 0 0 0"/>
    <polygon stroke="#647C85" stroke-width="2" points="0 78 78 78 78 0 0 0"/>
    <polygon fill="#78878C" points="0 16 78 16 78 0 0 0"/>
    <polygon stroke="#647C85" stroke-width="2" points="0 16 78 16 78 0 0 0"/>
    <path fill="#F08481" d="M12,8 C12,10.2092216 10.2094435,12 8.00049572,12 C5.79055645,12 4,10.2092216 4,8 C4,5.79077838 5.79055645,4 8.00049572,4 C10.2094435,4 12,5.79077838 12,8"/>
    <path stroke="#647C85" stroke-width="2" d="M12,8 C12,10.2092216 10.2094435,12 8.00049572,12 C5.79055645,12 4,10.2092216 4,8 C4,5.79077838 5.79055645,4 8.00049572,4 C10.2094435,4 12,5.79077838 12,8 L12,8 Z"/>
    <path fill="#EBB200" d="M24,8 C24,10.2092216 22.2094435,12 20.0004957,12 C17.7905565,12 16,10.2092216 16,8 C16,5.79077838 17.7905565,4 20.0004957,4 C22.2094435,4 24,5.79077838 24,8"/>
    <path stroke="#647C85" stroke-width="2" d="M24,8 C24,10.2092216 22.2094435,12 20.0004957,12 C17.7905565,12 16,10.2092216 16,8 C16,5.79077838 17.7905565,4 20.0004957,4 C22.2094435,4 24,5.79077838 24,8 L24,8 Z"/>
    <path fill="#7DDEB1" d="M36,8 C36,10.2092216 34.2094435,12 32.0004957,12 C29.7905565,12 28,10.2092216 28,8 C28,5.79077838 29.7905565,4 32.0004957,4 C34.2094435,4 36,5.79077838 36,8"/>
    <path stroke="#647C85" stroke-width="2" d="M36,8 C36,10.2092216 34.2094435,12 32.0004957,12 C29.7905565,12 28,10.2092216 28,8 C28,5.79077838 29.7905565,4 32.0004957,4 C34.2094435,4 36,5.79077838 36,8 L36,8 Z"/>
    <polygon fill="#FFFFFF" points="8 70 70 70 70 63 8 63"/>
    <polygon stroke="#647C85" stroke-width="2" points="8 70 70 70 70 63 8 63"/>
    <polygon fill="#FFFFFF" points="32 39 70 39 70 24 32 24"/>
    <polygon stroke="#647C85" stroke-width="2" points="32 38 70 38 70 23 32 23"/>
    <path stroke="#647C85" stroke-width="2" d="M8 46L36 46M8 51L70 51M8 56L70 56" stroke-linecap="round"/>
    <path fill="#78878C" d="M67.5 26C66.6713755 26 66 25.3286245 66 24.5 66 23.6713755 66.6713755 23 67.5 23 68.3286245 23 69 23.6713755 69 24.5 69 25.3286245 68.3286245 26 67.5 26M67.5 34C66.6713755 34 66 33.3286245 66 32.5 66 31.6713755 66.6713755 31 67.5 31 68.3286245 31 69 31.6713755 69 32.5 69 33.3286245 68.3286245 34 67.5 34M63.5 30C62.6713755 30 62 29.3286245 62 28.5 62 27.6713755 62.6713755 27 63.5 27 64.3286245 27 65 27.6713755 65 28.5 65 29.3286245 64.3286245 30 63.5 30M59.5 26C58.6713755 26 58 25.3286245 58 24.5 58 23.6713755 58.6713755 23 59.5 23 60.3286245 23 61 23.6713755 61 24.5 61 25.3286245 60.3286245 26 59.5 26M59.5 34C58.6713755 34 58 33.3286245 58 32.5 58 31.6713755 58.6713755 31 59.5 31 60.3286245 31 61 31.6713755 61 32.5 61 33.3286245 60.3286245 34 59.5 34M63.5 38C62.6713755 38 62 37.3286245 62 36.5 62 35.6713755 62.6713755 35 63.5 35 64.3286245 35 65 35.6713755 65 36.5 65 37.3286245 64.3286245 38 63.5 38M55.5 30C54.6713755 30 54 29.3286245 54 28.5 54 27.6713755 54.6713755 27 55.5 27 56.3286245 27 57 27.6713755 57 28.5 57 29.3286245 56.3286245 30 55.5 30M51.5 26C50.6713755 26 50 25.3286245 50 24.5 50 23.6713755 50.6713755 23 51.5 23 52.3286245 23 53 23.6713755 53 24.5 53 25.3286245 52.3286245 26 51.5 26M51.5 34C50.6713755 34 50 33.3286245 50 32.5 50 31.6713755 50.6713755 31 51.5 31 52.3286245 31 53 31.6713755 53 32.5 53 33.3286245 52.3286245 34 51.5 34M55.5 38C54.6713755 38 54 37.3286245 54 36.5 54 35.6713755 54.6713755 35 55.5 35 56.3286245 35 57 35.6713755 57 36.5 57 37.3286245 56.3286245 38 55.5 38M47.5 30C46.6713755 30 46 29.3286245 46 28.5 46 27.6713755 46.6713755 27 47.5 27 48.3286245 27 49 27.6713755 49 28.5 49 29.3286245 48.3286245 30 47.5 30M43.5 26C42.6713755 26 42 25.3286245 42 24.5 42 23.6713755 42.6713755 23 43.5 23 44.3286245 23 45 23.6713755 45 24.5 45 25.3286245 44.3286245 26 43.5 26M43.5 34C42.6713755 34 42 33.3286245 42 32.5 42 31.6713755 42.6713755 31 43.5 31 44.3286245 31 45 31.6713755 45 32.5 45 33.3286245 44.3286245 34 43.5 34"/>
    <g transform="translate(8 21)">
      <circle cx="9.5" cy="9.5" r="9.5" fill="none" stroke="#647C85" stroke-width="2" stroke-dasharray="3"/>
      <g fill="#647C85" transform="translate(3 3)">
        <path d="M13.6118983,5.13526696 C13.5935669,5.05378482 13.515368,4.99992768 13.4334564,5.01049018 C12.082379,5.18575804 9.80010829,5.28430268 9.42698122,4.80272232 C8.56980994,3.69690982 9.22556685,0.343025893 9.23229613,0.309249107 C9.24900331,0.22579375 9.19795359,0.143615179 9.11569392,0.121561607 C9.03378232,0.0996241071 8.94815801,0.145124107 8.9207768,0.22579375 C8.91137901,0.253534821 7.95512486,3.01081161 5.94829061,3.65849018 C4.13184862,4.24488304 1.58261105,2.30823125 1.55708619,2.28849911 C1.48735691,2.23487411 1.38746188,2.24694554 1.33235138,2.31577589 C1.27735691,2.38460625 1.28756685,2.48477589 1.35532376,2.54095446 C1.37562762,2.55778482 3.36668287,4.22874911 3.45300331,5.70007054 C3.20866077,6.47194554 0.963633149,7.37033839 0.110638674,7.65390089 C0.0268707182,7.68175804 -0.0189580111,7.77159732 0.00749502762,7.85586518 C0.0340640884,7.94001696 0.123285083,7.98714196 0.207749171,7.96218661 C0.237102762,7.95348125 3.15273812,7.10627589 4.35983204,8.62971339 C4.92358343,9.34134732 4.0624674,11.5233741 3.68307514,12.3040705 C3.64571602,12.381142 3.67495359,12.4741152 3.74967182,12.5159009 C3.77450055,12.5298295 3.8015337,12.5364455 3.82833481,12.5364455 C3.88193702,12.5364455 3.93414696,12.5097491 3.96489282,12.4614634 C4.51785414,11.5902312 6.1587547,9.30896339 7.09772155,9.21610625 C8.7107768,9.05581161 10.3898486,11.3699277 10.4066718,11.3933741 C10.4577215,11.464758 10.5566884,11.4821687 10.6290862,11.4326062 C10.7016,11.3830437 10.7212077,11.2846152 10.6732906,11.2109098 C10.1684785,10.4357848 8.95674365,8.24551696 9.40621326,7.43115982 C9.83421878,6.65545446 12.5094564,5.64749018 13.5041138,5.32446339 C13.5834729,5.29869554 13.6302298,5.21674911 13.6118983,5.13526696"/>
        <path d="M11.5708956 2.36703304C12.1235088 2.72615804 12.2806028 3.46472054 11.9216304 4.01803304 11.5637022 4.57018482 10.8242934 4.72780982 10.2720282 4.36903304 9.71941492 4.00967589 9.56232099 3.27088125 9.9209453 2.71849732 10.2795696 2.16518482 11.0182823 2.00802411 11.5708956 2.36703304M2.15950773 4.66453929C2.56802155 4.92871786 2.68404365 5.4757625 2.41812099 5.88375357 2.15440276 6.29244107 1.60898287 6.40909286 1.19988895 6.14317321.79149116 5.87771786.675469061 5.33183393.941043646 4.92384286 1.20603812 4.51515536 1.75157403 4.39908393 2.15950773 4.66453929M3.1710116 8.75731071C3.57279613 9.017775 3.68730994 9.55541786 3.42626022 9.9578375 3.1652105 10.3604893 2.62837624 10.4743554 2.2260116 10.2131946 1.82387901 9.95203393 1.71029337 9.41497143 1.97099503 9.01301607 2.23204475 8.61036429 2.76887901 8.49615 3.1710116 8.75731071M7.90101215 10.3852473C8.35361436 10.6796045 8.48228287 11.2841045 8.18828287 11.7363188 7.89532707 12.188417 7.29108398 12.3172563 6.83871381 12.0233634 6.38680773 11.7295866 6.25744309 11.1247384 6.55144309 10.6729884 6.84474696 10.2204259 7.44910608 10.0920509 7.90101215 10.3852473M11.6324685 7.20802411C12.112916 7.51955982 12.2487779 8.16155089 11.9373746 8.64173839 11.6260873 9.12180982 10.9847171 9.25900625 10.5040376 8.94700625 10.0237061 8.63581875 9.88749613 7.99371161 10.1986674 7.51329196 10.5104188 7.03264018 11.1523691 6.89672054 11.6324685 7.20802411M6.29885138.881736607C6.85204475 1.24051339 7.00913867 1.97907589 6.6501663 2.53215625 6.29165801 3.08500446 5.5529453 3.24216518 5.00068011 2.88338839 4.44748674 2.52437946 4.29097293 1.78558482 4.64959724 1.23273661 5.00822155.680004464 5.74693425.522263393 6.29885138.881736607"/>
      </g>
    </g>
    <path fill="#78878C" d="M47.5 38C46.6713755 38 46 37.3286245 46 36.5 46 35.6713755 46.6713755 35 47.5 35 48.3286245 35 49 35.6713755 49 36.5 49 37.3286245 48.3286245 38 47.5 38M39.5 30C38.6713755 30 38 29.3286245 38 28.5 38 27.6713755 38.6713755 27 39.5 27 40.3286245 27 41 27.6713755 41 28.5 41 29.3286245 40.3286245 30 39.5 30M35.5 26C34.6713755 26 34 25.3286245 34 24.5 34 23.6713755 34.6713755 23 35.5 23 36.3286245 23 37 23.6713755 37 24.5 37 25.3286245 36.3286245 26 35.5 26M35.5 34C34.6713755 34 34 33.3286245 34 32.5 34 31.6713755 34.6713755 31 35.5 31 36.3286245 31 37 31.6713755 37 32.5 37 33.3286245 36.3286245 34 35.5 34M39.5 38C38.6713755 38 38 37.3286245 38 36.5 38 35.6713755 38.6713755 35 39.5 35 40.3286245 35 41 35.6713755 41 36.5 41 37.3286245 40.3286245 38 39.5 38"/>
  </g>
</svg>
