<svg xmlns="http://www.w3.org/2000/svg" width="180" height="28" viewBox="0 0 180 28" xmlns:xlink="http://www.w3.org/1999/xlink">
  <defs>
    <polygon id="a" points="0 27.92 179.848 27.92 179.848 .25 0 .25"/>
  </defs>
  <g fill="none" fill-rule="evenodd" opacity=".7">
    <path fill="#414853" d="M29.1683536,11.060575 C29.1290718,10.885075 28.9615028,10.769075 28.7859779,10.791825 C25.8908122,11.169325 21.000232,11.381575 20.200674,10.344325 C18.3638785,7.962575 19.7690718,0.738825 19.7834917,0.666075 C19.8192928,0.486325 19.7099006,0.309325 19.5336298,0.261825 C19.358105,0.214575 19.1746243,0.312575 19.1159503,0.486325 C19.0958122,0.546075 17.0466961,6.484825 12.746337,7.879825 C8.85396133,9.142825 3.39130939,4.971575 3.33661326,4.929075 C3.18719337,4.813575 2.9731326,4.839575 2.85503867,4.987825 C2.73719337,5.136075 2.75907182,5.351825 2.90426519,5.472825 C2.94777348,5.509075 7.21432044,9.108075 7.39929282,12.277075 C6.87570166,13.939575 2.06492818,15.874575 0.237082873,16.485325 C0.0575801105,16.545325 -0.0406243094,16.738825 0.0160607735,16.920325 C0.0729944751,17.101575 0.26418232,17.203075 0.445176796,17.149325 C0.508077348,17.130575 6.7558674,15.305825 9.34249724,18.587075 C10.5505359,20.119825 8.70528729,24.819575 7.89230387,26.501075 C7.81224862,26.667075 7.87490055,26.867325 8.03501105,26.957325 C8.08821547,26.987325 8.14614365,27.001575 8.20357459,27.001575 C8.31843646,27.001575 8.43031492,26.944075 8.4961989,26.840075 C9.68111602,24.963575 13.1973315,20.050075 15.2094033,19.850075 C18.6659503,19.504825 22.2639613,24.489075 22.300011,24.539575 C22.4094033,24.693325 22.6214751,24.730825 22.7766133,24.624075 C22.932,24.517325 22.9740166,24.305325 22.871337,24.146575 C21.7895967,22.477075 19.1930221,17.759575 20.1561713,16.005575 C21.073326,14.334825 26.8059779,12.163825 28.9373867,11.468075 C29.107442,11.412575 29.2076354,11.236075 29.1683536,11.060575"/>
    <path fill="#414853" d="M24.7947762 5.098225C25.9789475 5.871725 26.3155773 7.462475 25.5463508 8.654225 24.7793619 9.843475 23.1949144 10.182975 22.011489 9.410225 20.8273177 8.636225 20.4906878 7.044975 21.2591685 5.855225 22.0276492 4.663475 23.610605 4.324975 24.7947762 5.098225M4.62751657 10.0467C5.50290331 10.6157 5.7515221 11.79395 5.18168785 12.6727 4.61657735 13.55295 3.44782044 13.8042 2.57119061 13.23145 1.69605249 12.6597 1.4474337 11.48395 2.0165221 10.6052 2.5843674 9.72495 3.75337293 9.47495 4.62751657 10.0467M6.79502486 18.8619C7.65599171 19.4229 7.90137845 20.5809 7.34198619 21.44765 6.78259392 22.3149 5.63223481 22.56015 4.77002486 21.99765 3.90831215 21.43515 3.66491436 20.2784 4.22356077 19.41265 4.78295304 18.5454 5.93331215 18.2994 6.79502486 18.8619M16.9307403 22.368225C17.9006022 23.002225 18.1763204 24.304225 17.5463204 25.278225 16.918558 26.251975 15.6237514 26.529475 14.6543867 25.896475 13.6860166 25.263725 13.4088066 23.960975 14.0388066 22.987975 14.6673149 22.013225 15.9623702 21.736725 16.9307403 22.368225M24.9267182 15.524975C25.9562486 16.195975 26.2473812 17.578725 25.5800884 18.612975 24.9130442 19.646975 23.5386796 19.942475 22.5086519 19.270475 21.4793702 18.600225 21.1874917 17.217225 21.8542873 16.182475 22.522326 15.147225 23.8979337 14.854475 24.9267182 15.524975M13.4975387 1.899125C14.682953 2.671875 15.0195829 4.262625 14.2503564 5.453875 13.4821243 6.644625 11.8991685 6.983125 10.7157431 6.210375 9.53032873 5.437125 9.19494199 3.845875 9.96342265 2.655125 10.7319033 1.464625 12.3148591 1.124875 13.4975387 1.899125M44.5013204 13.0201C44.5013204 11.2201 44.0122873 9.8161 43.0344696 8.8076 42.0564033 7.79935 40.6807956 7.2951 38.9073978 7.2951 38.028779 7.2951 37.2665138 7.3701 36.620105 7.5201L36.620105 19.3451C37.2001326 19.4786 37.8547459 19.5451 38.5841934 19.5451 40.4736961 19.5451 41.9487514 18.9286 43.0096077 17.6951 44.0040829 16.51185 44.5013204 14.9536 44.5013204 13.0201M47.8328122 12.9951C47.8328122 15.96185 46.9293315 18.26185 45.1228674 19.8951 43.3989448 21.46185 41.0370663 22.2451 38.037232 22.2451 36.3796906 22.2451 34.8713204 22.1201 33.5123702 21.8701L33.5123702 5.0451C34.9377017 4.7451 36.6283094 4.5951 38.5841934 4.5951 41.4017901 4.5951 43.6144972 5.2786 45.2223149 6.6451 46.9626464 8.11185 47.8328122 10.2286 47.8328122 12.9951M58.1750055 14.47005C58.1583481 13.65355 57.9427956 12.9868 57.5285967 12.47005 57.0644254 11.9368 56.434674 11.67005 55.6390939 11.67005 54.8765801 11.67005 54.2632376 11.94105 53.7993149 12.48255 53.3351436 13.0243 53.0865249 13.6868 53.0534586 14.47005L58.1750055 14.47005zM61.2578785 15.17005C61.2578785 15.42005 61.1997017 15.97005 61.0838453 16.82005L53.0534586 16.82005C53.2523536 18.7038 54.3626851 19.64505 56.3849503 19.64505 57.5285967 19.64505 58.581 19.4288 59.5424088 18.99505L60.4871602 21.32005C59.0451713 21.9368 57.6195912 22.24505 56.2109171 22.24505 54.3047569 22.24505 52.767547 21.6493 51.5990387 20.45755 50.4305304 19.2663 49.8462762 17.69505 49.8462762 15.74505 49.8462762 13.84505 50.3350608 12.3038 51.3131271 11.12005 52.357326 9.8368 53.7908619 9.19505 55.614232 9.19505 57.3709724 9.19505 58.7632376 9.75355 59.7910276 10.87005 60.7688453 11.9538 61.2578785 13.3868 61.2578785 15.17005L61.2578785 15.17005zM72.1473066 18.495075C72.1473066 19.761825 71.6083011 20.736825 70.5312845 21.420075 69.6193508 21.970075 68.5087707 22.245075 67.1997928 22.245075 65.9069751 22.245075 64.5395718 21.970075 63.0975829 21.420075L63.9677486 19.070075C65.1278039 19.570075 66.122279 19.820075 66.951174 19.820075 68.2104282 19.820075 68.8406768 19.361825 68.8406768 18.445075 68.8406768 17.861825 68.3683011 17.345075 67.4235497 16.895075 65.8821133 16.161825 65.0199033 15.728575 64.8379144 15.595075 63.893163 14.895075 63.4207873 13.961825 63.4207873 12.795075 63.4207873 11.611825 63.9428867 10.686825 64.9870856 10.020075 65.8485497 9.470075 66.8596823 9.195075 68.0202348 9.195075 69.3627762 9.195075 70.5561464 9.445075 71.6003453 9.945075L70.7550414 12.270075C69.7436602 11.886825 68.8319751 11.695075 68.0202348 11.695075 66.9924448 11.695075 66.4787983 12.070075 66.4787983 12.820075 66.4787983 13.353575 66.9673343 13.820075 67.9456492 14.220075 69.4373619 14.820075 70.3487983 15.236825 70.6804558 15.470075 71.6582735 16.186825 72.1473066 17.195075 72.1473066 18.495075"/>
    <mask id="b" fill="white">
      <use xlink:href="#a"/>
    </mask>
    <path fill="#414853" d="M74.9317127 21.97L77.9151381 21.97 77.9151381 9.47 74.9317127 9.47 74.9317127 21.97zM78.2134807 5.195C78.2134807 5.71175 78.0349724 6.1325 77.6787017 6.4575 77.3221823 6.7825 76.8870994 6.945 76.373453 6.945 75.859558 6.945 75.4326796 6.7825 75.0933149 6.4575 74.7532044 6.1325 74.5833978 5.71175 74.5833978 5.195 74.5833978 4.695 74.7532044 4.27425 75.0933149 3.9325 75.4326796 3.59125 75.859558 3.42 76.373453 3.42 76.8706906 3.42 77.301547 3.59125 77.6665193 3.9325 78.0307459 4.27425 78.2134807 4.695 78.2134807 5.195L78.2134807 5.195zM88.729732 13.945025C88.729732 13.245025 88.509953 12.703775 88.0711409 12.320025 87.6315829 11.936775 87.0642348 11.745025 86.3678536 11.745025 85.671721 11.745025 85.1038757 11.936775 84.6648149 12.320025 84.2255055 12.703775 84.0059751 13.245025 84.0059751 13.945025 84.0059751 14.645025 84.2255055 15.191025 84.6648149 15.582525 85.1038757 15.974275 85.671721 16.170025 86.3678536 16.170025 87.0642348 16.170025 87.6315829 15.974275 88.0711409 15.582525 88.509953 15.191025 88.729732 14.645025 88.729732 13.945025M89.5504227 24.045025C89.5504227 23.461525 88.8871077 23.020025 87.5614724 22.720025 86.6328812 22.570025 85.7129917 22.420025 84.8015552 22.270025 83.6581575 22.653275 83.0863343 23.261525 83.0863343 24.095025 83.0863343 24.678275 83.516942 25.103275 84.3789033 25.370025 84.9589309 25.553275 85.6384061 25.645025 86.4175773 25.645025 88.5062238 25.645025 89.5504227 25.111525 89.5504227 24.045025M92.5833232 23.870025C92.5833232 25.303275 91.8705331 26.378275 90.4452017 27.095025 89.3348702 27.645025 87.9838757 27.920025 86.3929641 27.920025 84.8676878 27.920025 83.5666657 27.678275 82.4894006 27.195025 81.0638204 26.528275 80.3515276 25.528275 80.3515276 24.195025 80.3515276 22.578275 81.296279 21.486775 83.1855331 20.920025 82.8538757 20.453775 82.6882956 19.995025 82.6882956 19.545025 82.6882956 18.945025 82.9781851 18.403775 83.5584613 17.920025 81.9506436 17.036775 81.1468591 15.695025 81.1468591 13.895025 81.1468591 12.445025 81.6692072 11.286775 82.7134061 10.420025 83.6909751 9.603525 84.9092072 9.195025 86.3678536 9.195025 86.682605 9.195025 87.0679641 9.241275 87.5239309 9.332525 87.9796492 9.424275 88.257605 9.470025 88.3568039 9.470025L92.5833232 9.470025 92.5833232 11.770025C91.9202569 11.803775 91.3653398 11.728525 90.917826 11.545025L90.8681022 11.595025C91.3484337 12.428775 91.5888481 13.195025 91.5888481 13.895025 91.5888481 15.061775 91.2410304 16.045025 90.5448978 16.845025 89.8485166 17.645025 88.9288757 18.178775 87.7849807 18.445025 87.636058 18.478525 87.0888481 18.536775 86.1443453 18.620025 85.9616105 18.636775 85.7714171 18.707525 85.5725221 18.832525 85.3733785 18.957525 85.2741796 19.103525 85.2741796 19.270025 85.2741796 19.686775 85.9036823 19.995025 87.1634337 20.195025 88.920174 20.461775 90.0971354 20.728525 90.6938204 20.995025 91.9533232 21.561775 92.5833232 22.520025 92.5833232 23.870025M105.735108 21.97005L102.751682 21.97005 102.751682 14.12005C102.751682 12.5868 101.93124 11.82005 100.290356 11.82005 99.5942238 11.82005 98.7571243 12.00355 97.7793066 12.37005 97.8123729 12.60355 97.8290304 12.77855 97.8290304 12.89505L97.8290304 21.97005 94.845605 21.97005 94.845605 12.19505C94.845605 11.8288 94.7874282 11.24505 94.6715718 10.44505 96.9919309 9.6118 98.8732293 9.19505 100.315218 9.19505 103.928146 9.19505 105.735108 10.6788 105.735108 13.64505L105.735108 21.97005zM121.546939 21.09505C120.021912 21.84505 118.505337 22.22005 116.997215 22.22005 114.427989 22.22005 112.335613 21.40355 110.719591 19.77005 109.103569 18.1368 108.295558 16.02855 108.295558 13.44505 108.295558 10.87855 109.045392 8.7663 110.545558 7.10755 112.045475 5.4493 114.063514 4.62005 116.599425 4.62005 118.157271 4.62005 119.790199 5.00355 121.497464 5.77005L120.477878 8.32005C119.002575 7.67005 117.693348 7.34505 116.549702 7.34505 114.991608 7.34505 113.765171 7.9368 112.870144 9.12005 112.041249 10.1868 111.62705 11.52855 111.62705 13.14505 111.62705 15.04505 112.10763 16.5618 113.069039 17.69505 114.09658 18.89505 115.538569 19.49505 117.395254 19.49505 118.521994 19.49505 119.640779 19.22855 120.751608 18.69505L121.546939 21.09505zM131.93913 9.47005L131.044102 12.04505C130.51355 11.87855 129.96634 11.79505 129.403218 11.79505 128.607638 11.79505 127.861782 11.90355 127.165649 12.12005 127.181809 12.2368 127.190511 12.32005 127.190511 12.37005L127.190511 21.97005 124.207086 21.97005 124.207086 12.44505C124.207086 12.0618 124.1325 11.4368 123.983329 10.57005 126.171174 9.65355 128.060677 9.19505 129.651837 9.19505 130.480483 9.19505 131.242997 9.2868 131.93913 9.47005M141.6105 15.745075C141.6105 14.661825 141.394948 13.770075 140.963843 13.070075 140.450196 12.220075 139.687682 11.795075 138.676798 11.795075 137.665666 11.795075 136.902903 12.211825 136.389506 13.045075 135.958401 13.745075 135.742848 14.645075 135.742848 15.745075 135.742848 16.845075 135.958401 17.736825 136.389506 18.420075 136.902903 19.253575 137.665666 19.670075 138.676798 19.670075 139.687682 19.670075 140.450196 19.253575 140.963843 18.420075 141.394948 17.736825 141.6105 16.845075 141.6105 15.745075M144.91713 15.720075C144.91713 17.620075 144.345307 19.182575 143.201412 20.407575 142.058014 21.632575 140.549395 22.245075 138.676798 22.245075 136.803456 22.245075 135.286881 21.620075 134.126826 20.370075 132.999588 19.170075 132.436467 17.620075 132.436467 15.720075 132.436467 13.820075 133.008041 12.257575 134.151936 11.032575 135.295583 9.807575 136.803456 9.195075 138.676798 9.195075 140.549395 9.195075 142.058014 9.807575 143.201412 11.032575 144.345307 12.257575 144.91713 13.820075 144.91713 15.720075M167.193 9.47005L162.568691 22.17005C161.557558 22.17005 160.761978 21.99505 160.18195 21.64505 159.55195 21.2618 159.07137 20.6118 158.739961 19.69505L156.552116 13.59505 153.643276 22.17005C152.632144 22.17005 151.844768 22.0033 151.281398 21.67005 150.651398 21.2868 150.162613 20.6368 149.814796 19.72005L145.961204 9.47005 149.342171 9.47005 152.275873 18.27005 152.325597 18.27005 152.549602 17.59505 155.259298 9.47005 157.969243 9.47005 161.10184 18.27005 161.151564 18.27005 163.936094 9.47005 167.193 9.47005zM176.764823 19.42C176.731508 19.18675 176.715348 19.02 176.715348 18.92L176.715348 12.395C176.201204 11.995 175.521729 11.795 174.676674 11.795 173.615569 11.795 172.812033 12.17875 172.264823 12.945 171.800652 13.62875 171.568939 14.53675 171.568939 15.67 171.568939 16.8535 171.850376 17.795 172.413994 18.495 173.027088 19.26175 173.905707 19.645 175.049602 19.645 175.795459 19.645 176.367033 19.57 176.764823 19.42M179.847696 21.32C178.157337 21.93675 176.549271 22.245 175.024492 22.245 173.05195 22.245 171.427724 21.61625 170.151564 20.3575 168.875155 19.09925 168.237199 17.487 168.237199 15.52 168.237199 13.77 168.717779 12.30375 169.679188 11.12 170.723387 9.83675 172.140514 9.195 173.930818 9.195 174.941453 9.195 175.869796 9.42 176.715348 9.87L176.715348 3.62 179.698773 3.62 179.698773 19.645C179.698773 19.9785 179.748249 20.53675 179.847696 21.32" mask="url(#b)"/>
  </g>
</svg>
